<svg width="431" height="321" viewBox="0 0 431 321" fill="none" xmlns="http://www.w3.org/2000/svg">
<path d="M399.754 312.764C440.452 189.22 437.913 91.477 298.748 81.3103C159.584 71.1423 99.8145 -10.3257 36.6811 61.8743C-32.3135 140.776 7.47845 282.27 62.1398 314.577L399.754 312.764Z" fill="white"/>
<path d="M214.793 28.2345C238.829 74.4878 332.533 68.3158 347.512 46.3958C362.49 24.4745 198.534 -3.05484 214.793 28.2345Z" fill="#E7E9F2"/>
<path d="M204.974 305.661C200.604 298.226 194.704 291.693 187.75 286.59C187.31 286.268 186.777 285.933 186.256 286.09C185.67 286.266 185.43 286.95 185.298 287.545C184.19 292.594 184.996 298.038 187.518 302.549C183.852 295.814 178.77 289.853 172.702 285.168C171.83 284.494 170.714 283.814 169.698 284.237C169.018 291.909 171.108 299.798 175.5 306.126C173.813 304.109 171.862 302.31 169.714 300.792C169.35 300.536 168.966 300.281 168.526 300.209C167.557 300.052 166.644 300.88 166.373 301.824C166.104 302.768 166.32 303.777 166.582 304.724C167.393 307.626 168.652 310.405 170.298 312.932C170.569 313.345 170.873 313.773 171.325 313.974C171.909 314.236 172.586 314.058 173.202 313.881C184.185 310.717 195.577 308.978 207.002 308.725C208.544 308.689 210.437 308.454 211 307.02" fill="#61648A"/>
<path d="M424.85 319.96H16.0251C13.0905 319.96 10.7104 317.581 10.7104 314.645V313.777C10.7104 310.841 13.0905 308.46 16.0251 308.46H424.85C427.786 308.46 430.165 310.841 430.165 313.777V314.645C430.165 317.581 427.786 319.96 424.85 319.96Z" fill="#B6B9D1"/>
<path d="M249.145 303.998H201.638L204.817 260.805H245.966L249.145 303.998Z" fill="url(#paint0_linear_9_5444)"/>
<path d="M259.276 314.577H191.83V313.642C191.83 307.33 196.948 302.214 203.261 302.214H247.848C254.16 302.214 259.276 307.33 259.276 313.642V314.577Z" fill="url(#paint1_linear_9_5444)"/>
<path d="M332.738 264.522H118.37C104.812 264.522 93.8211 253.532 93.8211 239.974V112.922C93.8211 99.365 104.812 88.373 118.37 88.373H332.738C346.296 88.373 357.286 99.365 357.286 112.922V239.974C357.286 253.532 346.296 264.522 332.738 264.522Z" fill="url(#paint2_linear_9_5444)"/>
<path d="M105 241.187H346.052V98H105V241.187Z" fill="#DCFFE1"/>
<path d="M202 135.861H214.349C214.901 135.861 215.349 135.413 215.349 134.861C215.349 134.309 214.901 133.861 214.349 133.861H202C201.448 133.861 201 134.309 201 134.861C201 135.413 201.448 135.861 202 135.861Z" fill="#FFC55A"/>
<path d="M202 127H225.84C226.392 127 226.84 126.553 226.84 126C226.84 125.448 226.392 125 225.84 125H202C201.448 125 201 125.448 201 126C201 126.553 201.448 127 202 127Z" fill="#D35473"/>
<path d="M228.92 127H249.235C249.787 127 250.235 126.553 250.235 126C250.235 125.448 249.787 125 249.235 125H228.92C228.368 125 227.92 125.448 227.92 126C227.92 126.553 228.368 127 228.92 127Z" fill="#54D15F"/>
<path d="M251.905 127H273.293C273.845 127 274.293 126.553 274.293 126C274.293 125.448 273.845 125 273.293 125H251.905C251.353 125 250.905 125.448 250.905 126C250.905 126.553 251.353 127 251.905 127Z" fill="#2D292A"/>
<path d="M217.431 135.861H241.508C242.06 135.861 242.508 135.413 242.508 134.861C242.508 134.309 242.06 133.861 241.508 133.861H217.431C216.877 133.861 216.431 134.309 216.431 134.861C216.431 135.413 216.877 135.861 217.431 135.861Z" fill="#2D292A"/>
<path d="M244.178 135.861H273.293C273.845 135.861 274.293 135.413 274.293 134.861C274.293 134.309 273.845 133.861 273.293 133.861H244.178C243.626 133.861 243.178 134.309 243.178 134.861C243.178 135.413 243.626 135.861 244.178 135.861Z" fill="#D35473"/>
<path d="M208.191 144.721H219.368C219.92 144.721 220.368 144.275 220.368 143.721C220.368 143.169 219.92 142.721 219.368 142.721H208.191C207.639 142.721 207.191 143.169 207.191 143.721C207.191 144.275 207.639 144.721 208.191 144.721Z" fill="#2D292A"/>
<path d="M222.448 144.721H241.508C242.06 144.721 242.508 144.275 242.508 143.721C242.508 143.169 242.06 142.721 241.508 142.721H222.448C221.896 142.721 221.448 143.169 221.448 143.721C221.448 144.275 221.896 144.721 222.448 144.721Z" fill="#FFC55A"/>
<path d="M244.178 144.721H263.421C263.973 144.721 264.421 144.275 264.421 143.721C264.421 143.169 263.973 142.721 263.421 142.721H244.178C243.626 142.721 243.178 143.169 243.178 143.721C243.178 144.275 243.626 144.721 244.178 144.721Z" fill="#FFC55A"/>
<path d="M202 222.861H214.349C214.901 222.861 215.349 222.413 215.349 221.861C215.349 221.309 214.901 220.861 214.349 220.861H202C201.448 220.861 201 221.309 201 221.861C201 222.413 201.448 222.861 202 222.861Z" fill="#FFC55A"/>
<path d="M202 214H225.84C226.392 214 226.84 213.553 226.84 213C226.84 212.448 226.392 212 225.84 212H202C201.448 212 201 212.448 201 213C201 213.553 201.448 214 202 214Z" fill="#D35473"/>
<path d="M228.92 214H249.235C249.787 214 250.235 213.553 250.235 213C250.235 212.448 249.787 212 249.235 212H228.92C228.368 212 227.92 212.448 227.92 213C227.92 213.553 228.368 214 228.92 214Z" fill="#54D15F"/>
<path d="M251.905 214H273.293C273.845 214 274.293 213.553 274.293 213C274.293 212.448 273.845 212 273.293 212H251.905C251.353 212 250.905 212.448 250.905 213C250.905 213.553 251.353 214 251.905 214Z" fill="#2D292A"/>
<path d="M217.431 222.861H241.508C242.06 222.861 242.508 222.413 242.508 221.861C242.508 221.309 242.06 220.861 241.508 220.861H217.431C216.877 220.861 216.431 221.309 216.431 221.861C216.431 222.413 216.877 222.861 217.431 222.861Z" fill="#2D292A"/>
<path d="M244.178 222.861H273.293C273.845 222.861 274.293 222.413 274.293 221.861C274.293 221.309 273.845 220.861 273.293 220.861H244.178C243.626 220.861 243.178 221.309 243.178 221.861C243.178 222.413 243.626 222.861 244.178 222.861Z" fill="#D35473"/>
<path d="M208.191 231.721H219.368C219.92 231.721 220.368 231.275 220.368 230.721C220.368 230.169 219.92 229.721 219.368 229.721H208.191C207.639 229.721 207.191 230.169 207.191 230.721C207.191 231.275 207.639 231.721 208.191 231.721Z" fill="#2D292A"/>
<path d="M222.448 231.721H241.508C242.06 231.721 242.508 231.275 242.508 230.721C242.508 230.169 242.06 229.721 241.508 229.721H222.448C221.896 229.721 221.448 230.169 221.448 230.721C221.448 231.275 221.896 231.721 222.448 231.721Z" fill="#FFC55A"/>
<path d="M244.178 231.721H263.421C263.973 231.721 264.421 231.275 264.421 230.721C264.421 230.169 263.973 229.721 263.421 229.721H244.178C243.626 229.721 243.178 230.169 243.178 230.721C243.178 231.275 243.626 231.721 244.178 231.721Z" fill="#FFC55A"/>
<path d="M272 152.444H281.853C282.405 152.444 282.853 151.997 282.853 151.444C282.853 150.892 282.405 150.444 281.853 150.444H272C271.448 150.444 271 150.892 271 151.444C271 151.997 271.448 152.444 272 152.444Z" fill="#FFC55A"/>
<path d="M284.933 152.444H292.837C293.389 152.444 293.837 151.997 293.837 151.444C293.837 150.892 293.389 150.444 292.837 150.444H284.933C284.38 150.444 283.933 150.892 283.933 151.444C283.933 151.997 284.38 152.444 284.933 152.444Z" fill="#D35473"/>
<path d="M295.508 152.444H308.333C308.885 152.444 309.333 151.997 309.333 151.444C309.333 150.892 308.885 150.444 308.333 150.444H295.508C294.956 150.444 294.508 150.892 294.508 151.444C294.508 151.997 294.956 152.444 295.508 152.444Z" fill="#2D292A"/>
<path d="M310.391 152.444H333.421C333.973 152.444 334.421 151.997 334.421 151.444C334.421 150.892 333.973 150.444 333.421 150.444H310.391C309.839 150.444 309.391 150.892 309.391 151.444C309.391 151.997 309.839 152.444 310.391 152.444Z" fill="#54D15F"/>
<path d="M326.585 170.165H336.151C336.703 170.165 337.151 169.719 337.151 169.165C337.151 168.613 336.703 168.165 336.151 168.165H326.585C326.033 168.165 325.585 168.613 325.585 169.165C325.585 169.719 326.033 170.165 326.585 170.165Z" fill="#FFC55A"/>
<path d="M278.191 161.305H290.908C291.46 161.305 291.908 160.857 291.908 160.305C291.908 159.753 291.46 159.305 290.908 159.305H278.191C277.639 159.305 277.191 159.753 277.191 160.305C277.191 160.857 277.639 161.305 278.191 161.305Z" fill="#54D15F"/>
<path d="M293.988 161.305H315.28C315.832 161.305 316.28 160.857 316.28 160.305C316.28 159.753 315.832 159.305 315.28 159.305H293.988C293.434 159.305 292.988 159.753 292.988 160.305C292.988 160.857 293.434 161.305 293.988 161.305Z" fill="#FFC55A"/>
<path d="M317.95 161.305H328.79C329.342 161.305 329.79 160.857 329.79 160.305C329.79 159.753 329.342 159.305 328.79 159.305H317.95C317.398 159.305 316.95 159.753 316.95 160.305C316.95 160.857 317.398 161.305 317.95 161.305Z" fill="#2D292A"/>
<path d="M276.156 170.165H285.889C286.441 170.165 286.889 169.719 286.889 169.165C286.889 168.613 286.441 168.165 285.889 168.165H276.156C275.604 168.165 275.156 168.613 275.156 169.165C275.156 169.719 275.604 170.165 276.156 170.165Z" fill="#FFC55A"/>
<path d="M288.969 170.165H302.711C303.263 170.165 303.711 169.719 303.711 169.165C303.711 168.613 303.263 168.165 302.711 168.165H288.969C288.417 168.165 287.969 168.613 287.969 169.165C287.969 169.719 288.417 170.165 288.969 170.165Z" fill="#2D292A"/>
<path d="M305.38 170.165H323.425C323.977 170.165 324.425 169.719 324.425 169.165C324.425 168.613 323.977 168.165 323.425 168.165H305.38C304.828 168.165 304.38 168.613 304.38 169.165C304.38 169.719 304.828 170.165 305.38 170.165Z" fill="#D35473"/>
<path d="M256.34 183.812H268.808C269.36 183.812 269.808 183.364 269.808 182.812C269.808 182.26 269.36 181.812 268.808 181.812H256.34C255.788 181.812 255.34 182.26 255.34 182.812C255.34 183.364 255.788 183.812 256.34 183.812Z" fill="#FFC55A"/>
<path d="M205.158 183.812H213.552C214.104 183.812 214.552 183.364 214.552 182.812C214.552 182.26 214.104 181.812 213.552 181.812H205.158C204.606 181.812 204.158 182.26 204.158 182.812C204.158 183.364 204.606 183.812 205.158 183.812Z" fill="#D35473"/>
<path d="M216.632 183.812H247.479C248.031 183.812 248.479 183.364 248.479 182.812C248.479 182.26 248.031 181.812 247.479 181.812H216.632C216.079 181.812 215.632 182.26 215.632 182.812C215.632 183.364 216.079 183.812 216.632 183.812Z" fill="#2D292A"/>
<path d="M202 192.673H215.401C215.953 192.673 216.401 192.227 216.401 191.673C216.401 191.121 215.953 190.673 215.401 190.673H202C201.448 190.673 201 191.121 201 191.673C201 192.227 201.448 192.673 202 192.673Z" fill="#FFC55A"/>
<path d="M218.48 192.673H235.317C235.869 192.673 236.317 192.227 236.317 191.673C236.317 191.121 235.869 190.673 235.317 190.673H218.48C217.928 190.673 217.48 191.121 217.48 191.673C217.48 192.227 217.928 192.673 218.48 192.673Z" fill="#2D292A"/>
<path d="M237.988 192.673H259.96C260.512 192.673 260.96 192.227 260.96 191.673C260.96 191.121 260.512 190.673 259.96 190.673H237.988C237.436 190.673 236.988 191.121 236.988 191.673C236.988 192.227 237.436 192.673 237.988 192.673Z" fill="#54D15F"/>
<path d="M232.372 253.989C232.372 257.753 229.32 260.805 225.553 260.805C221.789 260.805 218.737 257.753 218.737 253.989C218.737 250.224 221.789 247.172 225.553 247.172C229.32 247.172 232.372 250.224 232.372 253.989Z" fill="url(#paint3_linear_9_5444)"/>
<path d="M141.218 158.968L141.184 160.301C141.34 160.305 141.494 160.306 141.648 160.306C143.988 160.309 146.001 159.825 147.692 159.002C149.385 158.181 150.746 157.032 151.832 155.753C152.026 155.528 152.186 155.422 152.362 155.346C152.537 155.273 152.745 155.233 153.022 155.233C153.581 155.226 154.385 155.432 155.274 155.693C156.17 155.944 157.149 156.249 158.246 156.256C158.466 156.256 158.692 156.242 158.92 156.21L159.133 156.192L159.185 156.194L159.186 156.185L159.184 156.193L159.185 156.194L159.186 156.185L159.184 156.193L159.328 155.542L158.857 155.988C159.017 156.153 159.161 156.189 159.184 156.193L159.328 155.542L158.857 155.988L159.508 155.37H158.608C158.598 155.542 158.694 155.828 158.857 155.988L159.508 155.37H158.608H159.176L158.65 155.132C158.642 155.152 158.608 155.226 158.608 155.37H159.176L158.65 155.132L158.669 155.141L158.652 155.129L158.65 155.132L158.669 155.141L158.652 155.129C158.624 155.194 158.292 155.542 157.709 155.816C157.126 156.1 156.3 156.354 155.262 156.44L154.949 156.466L147.833 160.78L153.496 160.302C153.497 160.302 153.764 160.28 154.224 160.245C155.6 160.142 158.688 159.936 161.113 159.937C161.918 159.936 162.652 159.96 163.194 160.012C163.464 160.037 163.686 160.07 163.826 160.101L163.961 160.137L163.968 160.121L163.96 160.136L163.961 160.137L163.968 160.121L163.96 160.136L164.185 159.646L163.897 160.101L163.96 160.136L164.185 159.646L163.897 160.101L164.08 160.234L164.12 160.276L164.308 160.126L164.086 160.208L164.12 160.276L164.308 160.126L164.086 160.208L164.552 160.034H164.056L164.086 160.208L164.552 160.034H164.056H164.453L164.08 159.893L164.056 160.034H164.453L164.08 159.893L164.172 159.928L164.084 159.882L164.08 159.893L164.172 159.928L164.084 159.882C164.086 159.892 163.956 160.062 163.756 160.224V160.222C163.505 160.434 163.068 160.714 162.713 160.917C162.536 161.02 162.377 161.106 162.264 161.165L162.134 161.233L162.094 161.254L161.476 161.562L161.372 162.246L161.43 162.256L161.372 162.245V162.246L161.43 162.256L161.372 162.245C161.364 162.304 161.193 163.302 160.694 164.517C160.198 165.737 159.373 167.149 158.142 168.12C157.702 168.482 156.876 168.717 155.681 168.713C153.992 168.718 151.725 168.26 149.374 167.773C147.013 167.292 144.562 166.784 142.29 166.78C141.596 166.78 140.916 166.828 140.256 166.95C140.062 166.986 139.906 167 139.794 167C139.638 167 139.568 166.976 139.558 166.97L139.546 167.001L139.562 166.974L139.558 166.97L139.546 167.001L139.562 166.974L139.478 167.108L139.601 167.009L139.562 166.974L139.478 167.108L139.601 167.009L139.528 167.069L139.608 167.018L139.601 167.009L139.528 167.069L139.608 167.018L139.602 167.004C139.585 166.968 139.553 166.836 139.554 166.628C139.549 166.196 139.696 165.478 139.954 164.713C140.337 163.557 140.945 162.27 141.453 161.294C141.708 160.805 141.937 160.392 142.101 160.102C142.184 159.958 142.249 159.845 142.294 159.769L142.36 159.658L141.218 158.968L140.078 158.278C140.064 158.302 139.297 159.57 138.516 161.213C138.125 162.036 137.73 162.95 137.424 163.87C137.12 164.794 136.892 165.709 136.888 166.628C136.89 167.305 137.016 168.057 137.549 168.712C137.812 169.032 138.173 169.29 138.565 169.446C138.958 169.604 139.373 169.666 139.794 169.666C140.101 169.666 140.414 169.633 140.741 169.573C141.201 169.488 141.722 169.446 142.29 169.446C144.154 169.442 146.49 169.901 148.837 170.385C151.193 170.865 153.554 171.374 155.681 171.38C157.165 171.376 158.617 171.134 159.8 170.209C161.597 168.776 162.618 166.892 163.221 165.385C163.82 163.873 163.997 162.714 164.009 162.646L162.69 162.446L163.286 163.64C163.302 163.63 163.622 163.47 164.046 163.226C164.472 162.98 164.994 162.66 165.462 162.272L165.464 162.27C165.722 162.054 165.996 161.798 166.242 161.45C166.484 161.109 166.72 160.636 166.722 160.034C166.728 159.585 166.566 159.112 166.306 158.748C166.046 158.377 165.712 158.094 165.322 157.846C164.973 157.634 164.696 157.566 164.396 157.496C163.524 157.312 162.408 157.274 161.113 157.27C157.698 157.27 153.292 157.644 153.273 157.645L153.384 158.974L154.076 160.114L156.064 158.909L155.373 157.769L155.484 159.097C157.129 158.958 158.46 158.501 159.441 157.906C159.932 157.606 160.338 157.274 160.662 156.888C160.973 156.497 161.258 156.049 161.274 155.37C161.276 155.106 161.213 154.806 161.069 154.538C160.856 154.129 160.484 153.848 160.142 153.71C159.794 153.568 159.464 153.526 159.133 153.525C158.938 153.525 158.744 153.541 158.544 153.57L158.246 153.589C157.701 153.597 156.9 153.39 156.009 153.129C155.113 152.878 154.126 152.573 153.022 152.566C152.48 152.565 151.9 152.649 151.333 152.886C150.768 153.121 150.236 153.51 149.8 154.026C148.91 155.072 147.846 155.964 146.528 156.604C145.209 157.242 143.626 157.638 141.648 157.64C141.518 157.64 141.386 157.638 141.254 157.636L140.478 157.614L140.078 158.278L141.218 158.968Z" fill="#2D292A"/>
<path d="M292.443 65.1598C290.857 64.5211 289.708 64.0104 289.708 64.0104L289.628 63.0585C290.445 63.0731 291.252 63.0798 292.064 63.0811C292.221 63.9504 292.351 64.6558 292.443 65.1598Z" fill="#7D7E8B"/>
<path d="M292.064 63.0811C291.252 63.0797 290.445 63.0731 289.628 63.0584L289.318 59.3797L291.376 59.1891C291.634 60.6864 291.87 62.0077 292.064 63.0811Z" fill="#7D7E8B"/>
<path d="M314.093 2.62781C314.037 2.62381 313.985 2.61314 313.936 2.59314C313.568 2.44781 313.496 1.70915 313.524 0.970483C313.641 1.55048 313.82 2.14114 314.093 2.62781Z" fill="#E88C9F"/>
<path d="M264.401 264.522H234.46L241.792 241.632H259.789L264.401 264.522Z" fill="#262738"/>
<path d="M253.398 209.909L252.222 209.065L252.84 207.137L253.398 209.909Z" fill="#2D2E41"/>
<path d="M291 233.54H337.292V187.246H291V233.54Z" fill="#383952"/>
<path d="M291 206.214L303.736 215.362L324.091 198.352L337.292 211.674V233.54H291V206.214Z" fill="#2B2D42"/>
<path d="M307.305 198.352C307.305 200.761 305.352 202.714 302.944 202.714C300.533 202.714 298.58 200.761 298.58 198.352C298.58 195.942 300.533 193.99 302.944 193.99C305.352 193.99 307.305 195.942 307.305 198.352Z" fill="#FFC55A"/>
<path d="M300.905 233.54H291V221.454L294.968 209.065L296.144 209.909L300.905 233.54Z" fill="#27283A"/>
<path d="M392.803 314.336H253V207H392.803V314.336Z" fill="#EDF6F9"/>
<path d="M292.334 314.473H252.84V207.137H292.334V314.473Z" fill="#DCFFE1"/>
<path d="M283.569 262.773H259.008C257.592 262.773 256.442 261.624 256.442 260.208V259.788C256.442 258.372 257.592 257.224 259.008 257.224H283.569C284.986 257.224 286.134 258.372 286.134 259.788V260.208C286.134 261.624 284.986 262.773 283.569 262.773Z" fill="#D35473"/>
<path d="M261.765 234.164H277.953C278.505 234.164 278.953 233.716 278.953 233.164C278.953 232.61 278.505 232.164 277.953 232.164H261.765C261.212 232.164 260.765 232.61 260.765 233.164C260.765 233.716 261.212 234.164 261.765 234.164Z" fill="white"/>
<path d="M261.765 243.106H277.953C278.505 243.106 278.953 242.658 278.953 242.106C278.953 241.554 278.505 241.106 277.953 241.106H261.765C261.212 241.106 260.765 241.554 260.765 242.106C260.765 242.658 261.212 243.106 261.765 243.106Z" fill="white"/>
<path d="M265.378 252.049H281.566C282.118 252.049 282.566 251.601 282.566 251.049C282.566 250.497 282.118 250.049 281.566 250.049H265.378C264.825 250.049 264.378 250.497 264.378 251.049C264.378 251.601 264.825 252.049 265.378 252.049Z" fill="white"/>
<path d="M261.765 260.992H277.953C278.505 260.992 278.953 260.544 278.953 259.992C278.953 259.44 278.505 258.992 277.953 258.992H261.765C261.212 258.992 260.765 259.44 260.765 259.992C260.765 260.544 261.212 260.992 261.765 260.992Z" fill="white"/>
<path d="M261.765 286.282H277.953C278.505 286.282 278.953 285.834 278.953 285.282C278.953 284.729 278.505 284.282 277.953 284.282H261.765C261.212 284.282 260.765 284.729 260.765 285.282C260.765 285.834 261.212 286.282 261.765 286.282Z" fill="white"/>
<path d="M266.296 269.934H282.487C283.039 269.934 283.487 269.486 283.487 268.934C283.487 268.382 283.039 267.934 282.487 267.934H266.296C265.744 267.934 265.296 268.382 265.296 268.934C265.296 269.486 265.744 269.934 266.296 269.934Z" fill="white"/>
<path d="M266.296 278.216H282.487C283.039 278.216 283.487 277.768 283.487 277.216C283.487 276.664 283.039 276.216 282.487 276.216H266.296C265.744 276.216 265.296 276.664 265.296 277.216C265.296 277.768 265.744 278.216 266.296 278.216Z" fill="white"/>
<path d="M308.004 234.982H320.353C320.905 234.982 321.353 234.534 321.353 233.982C321.353 233.43 320.905 232.982 320.353 232.982H308.004C307.452 232.982 307.004 233.43 307.004 233.982C307.004 234.534 307.452 234.982 308.004 234.982Z" fill="#FFC55A"/>
<path d="M308.004 226.121H331.844C332.396 226.121 332.844 225.674 332.844 225.121C332.844 224.569 332.396 224.121 331.844 224.121H308.004C307.452 224.121 307.004 224.569 307.004 225.121C307.004 225.674 307.452 226.121 308.004 226.121Z" fill="#D35473"/>
<path d="M334.924 226.121H355.239C355.791 226.121 356.239 225.674 356.239 225.121C356.239 224.569 355.791 224.121 355.239 224.121H334.924C334.372 224.121 333.924 224.569 333.924 225.121C333.924 225.674 334.372 226.121 334.924 226.121Z" fill="#54D15F"/>
<path d="M357.909 226.121H379.297C379.849 226.121 380.297 225.674 380.297 225.121C380.297 224.569 379.849 224.121 379.297 224.121H357.909C357.357 224.121 356.909 224.569 356.909 225.121C356.909 225.674 357.357 226.121 357.909 226.121Z" fill="#2D292A"/>
<path d="M323.435 234.982H347.512C348.064 234.982 348.512 234.534 348.512 233.982C348.512 233.43 348.064 232.982 347.512 232.982H323.435C322.881 232.982 322.435 233.43 322.435 233.982C322.435 234.534 322.881 234.982 323.435 234.982Z" fill="#2D292A"/>
<path d="M350.182 234.982H379.297C379.849 234.982 380.297 234.534 380.297 233.982C380.297 233.43 379.849 232.982 379.297 232.982H350.182C349.63 232.982 349.182 233.43 349.182 233.982C349.182 234.534 349.63 234.982 350.182 234.982Z" fill="#D35473"/>
<path d="M314.195 243.842H325.372C325.924 243.842 326.372 243.396 326.372 242.842C326.372 242.29 325.924 241.842 325.372 241.842H314.195C313.643 241.842 313.195 242.29 313.195 242.842C313.195 243.396 313.643 243.842 314.195 243.842Z" fill="#2D292A"/>
<path d="M328.452 243.842H347.512C348.064 243.842 348.512 243.396 348.512 242.842C348.512 242.29 348.064 241.842 347.512 241.842H328.452C327.9 241.842 327.452 242.29 327.452 242.842C327.452 243.396 327.9 243.842 328.452 243.842Z" fill="#FFC55A"/>
<path d="M350.182 243.842H369.425C369.977 243.842 370.425 243.396 370.425 242.842C370.425 242.29 369.977 241.842 369.425 241.842H350.182C349.63 241.842 349.182 242.29 349.182 242.842C349.182 243.396 349.63 243.842 350.182 243.842Z" fill="#FFC55A"/>
<path d="M308.004 261.565H317.857C318.409 261.565 318.857 261.118 318.857 260.565C318.857 260.013 318.409 259.565 317.857 259.565H308.004C307.452 259.565 307.004 260.013 307.004 260.565C307.004 261.118 307.452 261.565 308.004 261.565Z" fill="#FFC55A"/>
<path d="M320.937 261.565H328.841C329.393 261.565 329.841 261.118 329.841 260.565C329.841 260.013 329.393 259.565 328.841 259.565H320.937C320.384 259.565 319.937 260.013 319.937 260.565C319.937 261.118 320.384 261.565 320.937 261.565Z" fill="#D35473"/>
<path d="M331.512 261.565H344.337C344.889 261.565 345.337 261.118 345.337 260.565C345.337 260.013 344.889 259.565 344.337 259.565H331.512C330.96 259.565 330.512 260.013 330.512 260.565C330.512 261.118 330.96 261.565 331.512 261.565Z" fill="#2D292A"/>
<path d="M346.395 261.565H369.425C369.977 261.565 370.425 261.118 370.425 260.565C370.425 260.013 369.977 259.565 369.425 259.565H346.395C345.843 259.565 345.395 260.013 345.395 260.565C345.395 261.118 345.843 261.565 346.395 261.565Z" fill="#54D15F"/>
<path d="M362.589 279.286H372.154C372.706 279.286 373.154 278.84 373.154 278.286C373.154 277.734 372.706 277.286 372.154 277.286H362.589C362.037 277.286 361.589 277.734 361.589 278.286C361.589 278.84 362.037 279.286 362.589 279.286Z" fill="#FFC55A"/>
<path d="M314.195 270.426H326.912C327.464 270.426 327.912 269.978 327.912 269.426C327.912 268.874 327.464 268.426 326.912 268.426H314.195C313.643 268.426 313.195 268.874 313.195 269.426C313.195 269.978 313.643 270.426 314.195 270.426Z" fill="#54D15F"/>
<path d="M329.992 270.426H351.284C351.836 270.426 352.284 269.978 352.284 269.426C352.284 268.874 351.836 268.426 351.284 268.426H329.992C329.438 268.426 328.992 268.874 328.992 269.426C328.992 269.978 329.438 270.426 329.992 270.426Z" fill="#FFC55A"/>
<path d="M353.954 270.426H364.794C365.346 270.426 365.794 269.978 365.794 269.426C365.794 268.874 365.346 268.426 364.794 268.426H353.954C353.402 268.426 352.954 268.874 352.954 269.426C352.954 269.978 353.402 270.426 353.954 270.426Z" fill="#2D292A"/>
<path d="M312.16 279.286H321.893C322.445 279.286 322.893 278.84 322.893 278.286C322.893 277.734 322.445 277.286 321.893 277.286H312.16C311.608 277.286 311.16 277.734 311.16 278.286C311.16 278.84 311.608 279.286 312.16 279.286Z" fill="#FFC55A"/>
<path d="M324.973 279.286H338.714C339.266 279.286 339.714 278.84 339.714 278.286C339.714 277.734 339.266 277.286 338.714 277.286H324.973C324.421 277.286 323.973 277.734 323.973 278.286C323.973 278.84 324.421 279.286 324.973 279.286Z" fill="#2D292A"/>
<path d="M341.384 279.286H359.429C359.981 279.286 360.429 278.84 360.429 278.286C360.429 277.734 359.981 277.286 359.429 277.286H341.384C340.832 277.286 340.384 277.734 340.384 278.286C340.384 278.84 340.832 279.286 341.384 279.286Z" fill="#D35473"/>
<path d="M317.353 295.933H325.746C326.298 295.933 326.746 295.485 326.746 294.933C326.746 294.381 326.298 293.933 325.746 293.933H317.353C316.801 293.933 316.353 294.381 316.353 294.933C316.353 295.485 316.801 295.933 317.353 295.933Z" fill="#D35473"/>
<path d="M328.826 295.933H359.673C360.225 295.933 360.673 295.485 360.673 294.933C360.673 294.381 360.225 293.933 359.673 293.933H328.826C328.273 293.933 327.826 294.381 327.826 294.933C327.826 295.485 328.273 295.933 328.826 295.933Z" fill="#2D292A"/>
<path d="M362.344 295.933H374.812C375.364 295.933 375.812 295.485 375.812 294.933C375.812 294.381 375.364 293.933 374.812 293.933H362.344C361.792 293.933 361.344 294.381 361.344 294.933C361.344 295.485 361.792 295.933 362.344 295.933Z" fill="#FFC55A"/>
<path d="M314.195 304.794H327.596C328.148 304.794 328.596 304.348 328.596 303.794C328.596 303.242 328.148 302.794 327.596 302.794H314.195C313.643 302.794 313.195 303.242 313.195 303.794C313.195 304.348 313.643 304.794 314.195 304.794Z" fill="#FFC55A"/>
<path d="M330.675 304.794H347.512C348.064 304.794 348.512 304.348 348.512 303.794C348.512 303.242 348.064 302.794 347.512 302.794H330.675C330.123 302.794 329.675 303.242 329.675 303.794C329.675 304.348 330.123 304.794 330.675 304.794Z" fill="#2D292A"/>
<path d="M350.182 304.794H372.154C372.706 304.794 373.154 304.348 373.154 303.794C373.154 303.242 372.706 302.794 372.154 302.794H350.182C349.63 302.794 349.182 303.242 349.182 303.794C349.182 304.348 349.63 304.794 350.182 304.794Z" fill="#54D15F"/>
<path d="M386.249 218.812H259.233V212.189H386.249V218.812Z" fill="#383952"/>
<path d="M265.378 215.501C265.378 216.04 264.94 216.476 264.401 216.476C263.862 216.476 263.426 216.04 263.426 215.501C263.426 214.961 263.862 214.524 264.401 214.524C264.94 214.524 265.378 214.961 265.378 215.501Z" fill="#D35473"/>
<path d="M270.86 215.501C270.86 216.04 270.424 216.476 269.884 216.476C269.345 216.476 268.908 216.04 268.908 215.501C268.908 214.961 269.345 214.524 269.884 214.524C270.424 214.524 270.86 214.961 270.86 215.501Z" fill="#FFC55A"/>
<path d="M276.342 215.501C276.342 216.04 275.906 216.476 275.368 216.476C274.828 216.476 274.39 216.04 274.39 215.501C274.39 214.961 274.828 214.524 275.368 214.524C275.906 214.524 276.342 214.961 276.342 215.501Z" fill="#54D15F"/>
<path d="M395.076 143.448C395.076 155.458 385.337 165.196 373.326 165.196C361.316 165.196 351.578 155.458 351.578 143.448C351.578 131.436 361.316 121.698 373.326 121.698C385.337 121.698 395.076 131.436 395.076 143.448Z" fill="url(#paint4_linear_9_5444)"/>
<path d="M373.37 136.344C383.484 127.55 388.328 143.774 374.478 153.08C374.478 153.08 365.226 151.837 363.769 142.194C362.31 132.552 371.182 132.538 373.37 136.344Z" fill="white"/>
<path d="M191.705 241H107.295C106.58 241 106 239.634 106 237.95V99H193V237.95C193 239.634 192.42 241 191.705 241Z" fill="white"/>
<path d="M181.976 114.31C181.976 115.243 181.22 116 180.286 116H137.666C136.733 116 135.976 115.243 135.976 114.31V114.31C135.976 113.377 136.733 112.62 137.666 112.62H180.286C181.22 112.62 181.976 113.377 181.976 114.31V114.31Z" fill="#D3F4D8"/>
<path d="M176.976 121.31C176.976 122.243 176.22 123 175.286 123H137.666C136.733 123 135.976 122.243 135.976 121.31V121.31C135.976 120.377 136.733 119.62 137.666 119.62H175.286C176.22 119.62 176.976 120.377 176.976 121.31V121.31Z" fill="#D3F4D8"/>
<path d="M172.034 108.878C172.034 109.812 171.277 110.569 170.343 110.569H137.717C136.783 110.569 136.025 109.812 136.025 108.878V108.878C136.025 107.944 136.783 107.187 137.717 107.187H170.343C171.277 107.187 172.034 107.944 172.034 108.878V108.878Z" fill="#D35473"/>
<path d="M127.935 115.123C127.935 119.541 124.353 123.122 119.935 123.122C115.517 123.122 111.935 119.541 111.935 115.123C111.935 110.704 115.517 107.122 119.935 107.122C124.353 107.122 127.935 110.704 127.935 115.123Z" fill="#D35473"/>
<path d="M181.976 142.138C181.976 143.071 181.22 143.828 180.286 143.828H137.666C136.733 143.828 135.976 143.071 135.976 142.138V142.138C135.976 141.205 136.733 140.448 137.666 140.448H180.286C181.22 140.448 181.976 141.205 181.976 142.138V142.138Z" fill="#D3F4D8"/>
<path d="M176.976 149.138C176.976 150.071 176.22 150.828 175.286 150.828H137.666C136.733 150.828 135.976 150.071 135.976 149.138V149.138C135.976 148.205 136.733 147.448 137.666 147.448H175.286C176.22 147.448 176.976 148.205 176.976 149.138V149.138Z" fill="#D3F4D8"/>
<path d="M172.034 136.706C172.034 137.64 171.277 138.397 170.343 138.397H137.717C136.783 138.397 136.026 137.64 136.026 136.706V136.706C136.026 135.772 136.783 135.015 137.717 135.015H170.343C171.277 135.015 172.034 135.772 172.034 136.706V136.706Z" fill="#D35473"/>
<path d="M127.935 142.95C127.935 147.368 124.353 150.95 119.935 150.95C115.517 150.95 111.935 147.368 111.935 142.95C111.935 138.532 115.517 134.95 119.935 134.95C124.353 134.95 127.935 138.532 127.935 142.95Z" fill="#D35473"/>
<path d="M181.976 169.965C181.976 170.898 181.22 171.655 180.286 171.655H137.666C136.733 171.655 135.976 170.898 135.976 169.965V169.965C135.976 169.031 136.733 168.275 137.666 168.275H180.286C181.22 168.275 181.976 169.031 181.976 169.965V169.965Z" fill="#D3F4D8"/>
<path d="M176.976 176.965C176.976 177.898 176.22 178.655 175.286 178.655H137.666C136.733 178.655 135.976 177.898 135.976 176.965V176.965C135.976 176.031 136.733 175.275 137.666 175.275H175.286C176.22 175.275 176.976 176.031 176.976 176.965V176.965Z" fill="#D3F4D8"/>
<path d="M172.034 164.533C172.034 165.467 171.277 166.224 170.343 166.224H137.717C136.783 166.224 136.025 165.467 136.025 164.533V164.533C136.025 163.599 136.783 162.842 137.717 162.842H170.343C171.277 162.842 172.034 163.599 172.034 164.533V164.533Z" fill="#D35473"/>
<path d="M127.935 170.777C127.935 175.195 124.353 178.777 119.935 178.777C115.517 178.777 111.935 175.195 111.935 170.777C111.935 166.359 115.517 162.777 119.935 162.777C124.353 162.777 127.935 166.359 127.935 170.777Z" fill="#D35473"/>
<path d="M181.976 197.792C181.976 198.726 181.22 199.482 180.286 199.482H137.666C136.733 199.482 135.976 198.726 135.976 197.792V197.792C135.976 196.859 136.733 196.102 137.666 196.102H180.286C181.22 196.102 181.976 196.859 181.976 197.792V197.792Z" fill="#D3F4D8"/>
<path d="M176.976 204.792C176.976 205.726 176.22 206.482 175.286 206.482H137.666C136.733 206.482 135.976 205.726 135.976 204.792V204.792C135.976 203.859 136.733 203.102 137.666 203.102H175.286C176.22 203.102 176.976 203.859 176.976 204.792V204.792Z" fill="#D3F4D8"/>
<path d="M172.034 192.361C172.034 193.295 171.277 194.052 170.343 194.052H137.717C136.783 194.052 136.026 193.295 136.026 192.361V192.361C136.026 191.427 136.783 190.669 137.717 190.669H170.343C171.277 190.669 172.034 191.427 172.034 192.361V192.361Z" fill="#D35473"/>
<path d="M127.935 198.605C127.935 203.023 124.353 206.605 119.935 206.605C115.517 206.605 111.935 203.023 111.935 198.605C111.935 194.186 115.517 190.605 119.935 190.605C124.353 190.605 127.935 194.186 127.935 198.605Z" fill="#D35473"/>
<path d="M181.976 225.623C181.976 226.556 181.22 227.313 180.286 227.313H137.666C136.733 227.313 135.976 226.556 135.976 225.623V225.623C135.976 224.689 136.733 223.933 137.666 223.933H180.286C181.22 223.933 181.976 224.689 181.976 225.623V225.623Z" fill="#D3F4D8"/>
<path d="M176.976 232.623C176.976 233.556 176.22 234.313 175.286 234.313H137.666C136.733 234.313 135.976 233.556 135.976 232.623V232.623C135.976 231.689 136.733 230.933 137.666 230.933H175.286C176.22 230.933 176.976 231.689 176.976 232.623V232.623Z" fill="#D3F4D8"/>
<path d="M172.034 220.191C172.034 221.125 171.277 221.882 170.343 221.882H137.717C136.783 221.882 136.026 221.125 136.026 220.191V220.191C136.026 219.257 136.783 218.5 137.717 218.5H170.343C171.277 218.5 172.034 219.257 172.034 220.191V220.191Z" fill="#D35473"/>
<path d="M127.935 226.435C127.935 230.853 124.353 234.435 119.935 234.435C115.517 234.435 111.935 230.853 111.935 226.435C111.935 222.017 115.517 218.435 119.935 218.435C124.353 218.435 127.935 222.017 127.935 226.435Z" fill="#D35473"/>
<path d="M334.785 118.592H116.324V107.368H334.785V118.592Z" fill="white"/>
<path d="M125.344 113.237C125.344 114.557 124.273 115.626 122.954 115.626C121.634 115.626 120.565 114.557 120.565 113.237C120.565 111.918 121.634 110.848 122.954 110.848C124.273 110.848 125.344 111.918 125.344 113.237Z" fill="#D35473"/>
<path d="M134.26 113.237C134.26 114.557 133.189 115.626 131.87 115.626C130.55 115.626 129.481 114.557 129.481 113.237C129.481 111.918 130.55 110.848 131.87 110.848C133.189 110.848 134.26 111.918 134.26 113.237Z" fill="#FFC55A"/>
<path d="M143.174 113.237C143.174 114.557 142.105 115.626 140.785 115.626C139.466 115.626 138.396 114.557 138.396 113.237C138.396 111.918 139.466 110.848 140.785 110.848C142.105 110.848 143.174 111.918 143.174 113.237Z" fill="#54D15F"/>
<path d="M324.371 111.177H331.645C332.013 111.177 332.312 110.88 332.312 110.51C332.312 110.142 332.013 109.844 331.645 109.844H324.371C324.003 109.844 323.704 110.142 323.704 110.51C323.704 110.88 324.003 111.177 324.371 111.177Z" fill="#61648A"/>
<path d="M324.371 113.646H331.645C332.013 113.646 332.312 113.348 332.312 112.98C332.312 112.612 332.013 112.313 331.645 112.313H324.371C324.003 112.313 323.704 112.612 323.704 112.98C323.704 113.348 324.003 113.646 324.371 113.646Z" fill="#61648A"/>
<path d="M324.371 116.116H331.645C332.013 116.116 332.312 115.817 332.312 115.449C332.312 115.081 332.013 114.782 331.645 114.782H324.371C324.003 114.782 323.704 115.081 323.704 115.449C323.704 115.817 324.003 116.116 324.371 116.116Z" fill="#61648A"/>
<path d="M100.608 18.0768C100.608 18.0768 132.245 58.5828 96.1488 99.7808L82.5788 98.5168C82.5788 98.5168 108.702 56.5718 97.0668 23.1368L77.8438 24.5398L67.2138 17.6108L100.608 18.0768Z" fill="url(#paint5_linear_9_5444)"/>
<path d="M83.2808 216.393C83.2808 216.393 57.6477 272.26 44.1987 295.401C44.1987 295.401 41.5277 309.961 44.1987 314.54L46.4747 315.552L35.8508 315.236C35.8508 315.236 34.9067 295.651 35.6437 294.557C36.3807 293.463 37.8547 293.535 37.8547 293.535C37.8547 293.535 42.4098 257.444 55.6028 249.742L68.3878 205.705L83.2808 216.393Z" fill="url(#paint6_linear_9_5444)"/>
<path d="M51.0127 318.294C51.0287 318.55 42.7167 318.433 38.2017 318.351C36.5347 318.321 35.1137 317.149 34.7577 315.52L31.3477 297.607C31.0237 295.905 32.1047 294.251 33.7937 293.865L35.6967 293.43C35.6967 293.43 38.4117 297.154 37.5567 300.661C36.7017 304.167 35.9417 313.251 38.1017 314.309C40.2617 315.367 46.4737 315.552 46.4737 315.552C46.4737 315.552 50.8707 315.987 51.0127 318.294Z" fill="url(#paint7_linear_9_5444)"/>
<path d="M107.576 318.619C108.417 319.098 108.07 320.382 107.103 320.372C99.5467 320.296 82.6167 320.057 81.1117 319.431C79.1697 318.623 81.8197 311.644 84.6087 309.281L100.009 314.307L107.576 318.619Z" fill="url(#paint8_linear_9_5444)"/>
<path d="M112.357 212.83C112.357 212.83 95.7917 292.963 91.1067 308.595L102.192 315.551C102.192 315.551 96.6367 314.606 92.5177 314.308C88.3987 314.009 84.6097 309.282 84.6097 309.282L85.9377 307.164C85.9377 307.164 90.0917 227.467 89.0807 218.417L112.357 212.83Z" fill="url(#paint9_linear_9_5444)"/>
<path d="M153.476 25.9179C153.476 25.9179 155.761 67.6029 117.809 88.9039L126.946 109.743C126.946 109.743 161.306 88.9599 160.035 32.2779C159.999 30.6509 160.585 29.0719 161.648 27.8389L168.951 19.3669C171.733 16.1389 172.773 11.7609 171.739 7.62694L170.778 3.78492C170.456 2.49892 168.991 1.87994 167.845 2.54594L167.081 2.98994C164.65 4.40194 162.724 6.54193 161.576 9.10893L157.99 17.1249C156.651 20.1189 153.562 21.9369 150.295 21.6549L148.078 21.4639L153.476 25.9179Z" fill="url(#paint10_linear_9_5444)"/>
<path d="M80.9767 95.8289C82.3897 93.9349 84.5237 92.7099 86.8717 92.4449C99.3917 91.0299 113.982 87.1778 119.021 85.7798C120.047 85.4948 121.11 86.0649 121.451 87.0739L127.997 107.102C128.507 108.662 127.915 110.371 126.548 111.281L125.205 112.175C126.182 115.077 127.465 118.095 125.741 120.626C119.771 129.388 112.203 146.962 112.203 146.962L85.3207 147.082L85.9767 139.493L79.4107 102.442C78.9997 100.117 79.5637 97.7239 80.9767 95.8289Z" fill="url(#paint11_linear_9_5444)"/>
<path d="M114.466 142.992L113.937 147.589C113.937 147.589 121.534 170.339 110.138 223.475C110.138 223.475 85.4587 230.466 65.1757 213.737C65.1757 213.737 70.8977 163.585 72.4597 161.249C80.2437 149.613 85.4297 147.084 85.4297 147.084L85.6637 142.061C85.6637 142.061 107.359 145.983 114.466 142.992Z" fill="url(#paint12_linear_9_5444)"/>
<path d="M103.943 89.53C104.037 89.405 98.3307 72.302 98.3307 72.302L90.1567 73.044L86.9637 92.447C86.9637 92.447 99.7747 95.032 103.943 89.53Z" fill="url(#paint13_linear_9_5444)"/>
<path d="M88.0947 50.636C88.0947 50.636 96.4517 50.61 105.628 58.794C114.804 66.978 113.22 73.236 108.979 75.809C104.738 78.382 97.9397 81.161 87.9767 77.593C78.0137 74.024 77.3767 51.012 88.0947 50.636Z" fill="url(#paint14_linear_9_5444)"/>
<path d="M90.4527 70.082C90.4527 70.082 78.7307 57.384 91.9317 51.552L95.9857 52.405C95.9857 52.405 97.3207 42.028 87.6377 41.47C77.9547 40.912 67.5267 49.522 68.7127 61.743C69.8987 73.964 74.8527 80.071 82.7077 82.814C90.5637 85.557 90.4077 78.719 90.4077 78.719C90.4077 78.719 85.2717 75.212 85.4287 72.098C85.5847 68.985 89.8047 70.864 89.8047 70.864L90.4527 70.082Z" fill="url(#paint15_linear_9_5444)"/>
<path d="M89.6737 72.3839C89.6737 72.3839 83.6867 65.8209 81.3907 70.4279C79.0947 75.0349 87.3557 76.306 90.4727 76.529L89.6737 72.3839Z" fill="url(#paint16_linear_9_5444)"/>
<path d="M72.3407 68.118C73.1547 65.334 70.3427 62.866 67.6037 63.822C58.7637 66.906 47.0137 74.848 51.1147 95.108C55.7337 117.93 57.1547 129.815 54.1437 133.641C52.1667 136.154 53.9147 139.828 57.1047 139.609C59.4637 139.448 62.3486 138.296 65.7896 135.357C92.3296 112.686 67.5677 84.449 72.3407 68.118Z" fill="url(#paint17_linear_9_5444)"/>
<defs>
<linearGradient id="paint0_linear_9_5444" x1="221.173" y1="263.754" x2="242.098" y2="305.934" gradientUnits="userSpaceOnUse">
<stop stop-color="#2B3582"/>
<stop offset="1" stop-color="#150E42"/>
</linearGradient>
<linearGradient id="paint1_linear_9_5444" x1="223.031" y1="249.38" x2="282.794" y2="325.733" gradientUnits="userSpaceOnUse">
<stop stop-color="#2B3582"/>
<stop offset="1" stop-color="#150E42"/>
</linearGradient>
<linearGradient id="paint2_linear_9_5444" x1="202.156" y1="100.402" x2="271.17" y2="289.575" gradientUnits="userSpaceOnUse">
<stop stop-color="#2B3582"/>
<stop offset="1" stop-color="#150E42"/>
</linearGradient>
<linearGradient id="paint3_linear_9_5444" x1="225.045" y1="188.907" x2="255.192" y2="195.968" gradientUnits="userSpaceOnUse">
<stop stop-color="#2B3582"/>
<stop offset="1" stop-color="#150E42"/>
</linearGradient>
<linearGradient id="paint4_linear_9_5444" x1="356.268" y1="119.982" x2="387.253" y2="187.507" gradientUnits="userSpaceOnUse">
<stop stop-color="#CB236D"/>
<stop offset="1" stop-color="#4C246D"/>
</linearGradient>
<linearGradient id="paint5_linear_9_5444" x1="78.4662" y1="12.9218" x2="101.207" y2="82.6285" gradientUnits="userSpaceOnUse">
<stop stop-color="#F9B776"/>
<stop offset="1" stop-color="#F47960"/>
</linearGradient>
<linearGradient id="paint6_linear_9_5444" x1="83.2806" y1="260.627" x2="35.3633" y2="260.627" gradientUnits="userSpaceOnUse">
<stop stop-color="#F9B776"/>
<stop offset="1" stop-color="#F47960"/>
</linearGradient>
<linearGradient id="paint7_linear_9_5444" x1="17.4171" y1="153.47" x2="41.1472" y2="307.715" gradientUnits="userSpaceOnUse">
<stop stop-color="#CB236D"/>
<stop offset="1" stop-color="#4C246D"/>
</linearGradient>
<linearGradient id="paint8_linear_9_5444" x1="67.6273" y1="145.746" x2="91.3574" y2="299.991" gradientUnits="userSpaceOnUse">
<stop stop-color="#CB236D"/>
<stop offset="1" stop-color="#4C246D"/>
</linearGradient>
<linearGradient id="paint9_linear_9_5444" x1="112.356" y1="264.19" x2="84.6085" y2="264.19" gradientUnits="userSpaceOnUse">
<stop stop-color="#F9B776"/>
<stop offset="1" stop-color="#F47960"/>
</linearGradient>
<linearGradient id="paint10_linear_9_5444" x1="172.13" y1="56.0083" x2="117.809" y2="56.0083" gradientUnits="userSpaceOnUse">
<stop stop-color="#F9B776"/>
<stop offset="1" stop-color="#F47960"/>
</linearGradient>
<linearGradient id="paint11_linear_9_5444" x1="114.305" y1="86.4529" x2="12.464" y2="288.157" gradientUnits="userSpaceOnUse">
<stop stop-color="#102792"/>
<stop offset="0.9964" stop-color="#3EA7C4"/>
</linearGradient>
<linearGradient id="paint12_linear_9_5444" x1="136.855" y1="138.838" x2="47.8677" y2="239.195" gradientUnits="userSpaceOnUse">
<stop stop-color="#99E9A5"/>
<stop offset="1" stop-color="#4D6BDF"/>
</linearGradient>
<linearGradient id="paint13_linear_9_5444" x1="103.944" y1="82.6777" x2="86.9643" y2="82.6777" gradientUnits="userSpaceOnUse">
<stop stop-color="#F9B776"/>
<stop offset="1" stop-color="#F47960"/>
</linearGradient>
<linearGradient id="paint14_linear_9_5444" x1="103.039" y1="54.2238" x2="78.5952" y2="92.2389" gradientUnits="userSpaceOnUse">
<stop stop-color="#F9B776"/>
<stop offset="1" stop-color="#F47960"/>
</linearGradient>
<linearGradient id="paint15_linear_9_5444" x1="24.3153" y1="35.904" x2="107.573" y2="71.3502" gradientUnits="userSpaceOnUse">
<stop stop-color="#CB236D"/>
<stop offset="1" stop-color="#4C246D"/>
</linearGradient>
<linearGradient id="paint16_linear_9_5444" x1="99.6838" y1="52.0664" x2="75.2402" y2="90.0816" gradientUnits="userSpaceOnUse">
<stop stop-color="#F9B776"/>
<stop offset="1" stop-color="#F47960"/>
</linearGradient>
<linearGradient id="paint17_linear_9_5444" x1="6.37585" y1="83.2353" x2="100.468" y2="113.87" gradientUnits="userSpaceOnUse">
<stop stop-color="#CB236D"/>
<stop offset="1" stop-color="#4C246D"/>
</linearGradient>
</defs>
</svg>
