<svg width="22" height="22" viewBox="0 0 22 22" fill="none" xmlns="http://www.w3.org/2000/svg">
<path d="M13.6624 18.9363C12.4338 19.7818 10.9452 20.2779 9.34227 20.2779C5.14049 20.2779 1.72208 16.8719 1.72208 12.6853C1.72208 11.1217 2.31986 9.67758 3.49879 8.39308C3.7605 8.10791 4.02407 7.86174 4.26718 7.65535C4.45045 8.52727 4.76693 9.2759 5.21372 9.89154L5.57045 10.3831L6.1532 10.212C7.97714 9.67633 9.29246 8.61433 10.0627 7.05542C10.622 5.92367 10.8937 4.55221 10.8843 2.8917C13.7052 4.56823 15.3897 6.85816 16.2466 9.06499C16.5292 9.13406 16.8046 9.22977 17.0692 9.35086C17.383 9.20874 17.7157 9.10133 18.0639 9.0296C17.7935 8.21687 17.4099 7.33642 16.8683 6.42686C16.1753 5.263 15.3048 4.19949 14.2809 3.26578C13.1417 2.22673 11.806 1.34391 10.311 0.641859L8.94435 -2.92305e-07L9.08788 1.50307C9.53209 6.15447 7.8643 7.69853 6.29187 8.34306C6.00626 7.73912 5.84405 6.98098 5.8084 6.07986L5.75372 4.69665L4.5372 5.3572C4.49041 5.3826 3.37898 5.99286 2.274 7.18113C0.786344 8.78098 0 10.6843 0 12.6853C0 17.8214 4.19094 22 9.34227 22C11.5319 22 13.5476 21.2447 15.1421 19.9823C14.6304 19.6605 14.1365 19.3113 13.6624 18.9363Z" fill="#4CAF50"/>
<path d="M17.0696 14.365C17.0696 14.1257 17.3171 13.5166 18.1459 13.5166C18.7403 13.5166 19.2222 13.9565 19.2222 14.6713C19.2222 15.641 17.7042 16.6744 17.2176 16.9603C17.1718 16.9873 17.0696 17.0469 17.0696 17.0469C17.0696 17.0469 16.9673 16.9873 16.9214 16.9603C16.4349 16.6744 14.917 15.641 14.917 14.6713C14.917 13.9565 15.3989 13.5166 15.9933 13.5166C16.822 13.5166 17.0696 14.1257 17.0696 14.365Z" fill="#4CAF50"/>
</svg>
