<svg width="22" height="22" viewBox="0 0 22 22" fill="none" xmlns="http://www.w3.org/2000/svg">
<path d="M20.6706 19.4033C20.6706 20.1032 20.1032 20.6706 19.4033 20.6706H2.59669C1.89683 20.6706 1.32944 20.1032 1.32944 19.4033V2.59669C1.32944 1.89682 1.89682 1.32944 2.59669 1.32944H19.4033C20.1032 1.32944 20.6706 1.89682 20.6706 2.59669V19.4033ZM22 2.59669C22 1.16259 20.8374 -4.91098e-07 19.4033 -4.91098e-07H2.59669C1.16259 5.78952e-07 0 1.16259 0 2.59669V19.4033C1.33532e-06 20.8374 1.1626 22 2.59669 22H19.4033C20.8374 22 22 20.8374 22 19.4033V2.59669Z" fill="#4CAF50"/>
<path d="M21.3353 6.47559C21.7024 6.47559 22 6.17798 22 5.81087C22 5.44375 21.7024 5.14615 21.3353 5.14615H0.66472C0.297605 5.14615 0 5.44375 0 5.81087C0 6.17798 0.297605 6.47559 0.66472 6.47559H21.3353Z" fill="#4CAF50"/>
<path d="M18.7626 3.90234C19.1297 3.90234 19.4273 3.60474 19.4273 3.23762C19.4273 2.87051 19.1297 2.5729 18.7626 2.5729H8.38445C8.01733 2.5729 7.71973 2.87051 7.71973 3.23762C7.71973 3.60474 8.01733 3.90234 8.38445 3.90234H18.7626Z" fill="#4CAF50"/>
<path d="M3.88128 3.23758C3.88128 3.59284 3.59326 3.88086 3.238 3.88086C2.88274 3.88086 2.59473 3.59284 2.59473 3.23758C2.59473 2.88232 2.88274 2.59431 3.238 2.59431C3.59326 2.59431 3.88128 2.88232 3.88128 3.23758Z" fill="#4CAF50"/>
<path d="M6.45452 3.23758C6.45452 3.59284 6.1665 3.88086 5.81124 3.88086C5.45598 3.88086 5.16797 3.59284 5.16797 3.23758C5.16797 2.88232 5.45598 2.59431 5.81124 2.59431C6.1665 2.59431 6.45452 2.88232 6.45452 3.23758Z" fill="#4CAF50"/>
<path d="M15.4833 16.8525L15.5104 16.852C15.7884 16.8408 16.0314 16.6569 16.1166 16.3899L17.2453 12.8538H17.2453C17.7029 11.4202 16.6332 9.9559 15.1283 9.9559H6.55925C6.35542 9.9559 6.16287 10.0494 6.03684 10.2096C5.91081 10.3698 5.86524 10.579 5.91321 10.7771L7.26141 16.3443L7.26874 16.372C7.35035 16.6554 7.6102 16.8525 7.90745 16.8525H15.4833ZM7.40418 11.2853H15.1283C15.7329 11.2853 16.1627 11.8737 15.9788 12.4496L14.9977 15.5231H8.43045L7.40418 11.2853Z" fill="#4CAF50"/>
<path d="M9.43151 17.4755C9.43151 17.8189 9.15312 18.0973 8.80967 18.0973C8.46623 18.0973 8.18784 17.8189 8.18784 17.4755C8.18784 17.132 8.46623 16.8536 8.80967 16.8536C9.15312 16.8537 9.43151 17.132 9.43151 17.4755ZM10.7609 17.4755C10.7609 16.3978 9.88735 15.5242 8.80967 15.5242C7.732 15.5242 6.8584 16.3978 6.8584 17.4755C6.8584 18.5532 7.732 19.4268 8.80967 19.4268C9.88735 19.4268 10.7609 18.5532 10.7609 17.4755Z" fill="#4CAF50"/>
<path d="M15.4784 17.4755C15.4784 17.8189 15.2 18.0973 14.8565 18.0973C14.5131 18.0973 14.2347 17.8189 14.2347 17.4755C14.2347 17.132 14.5131 16.8536 14.8565 16.8536C15.2 16.8537 15.4784 17.132 15.4784 17.4755ZM16.8078 17.4755C16.8078 16.3978 15.9342 15.5242 14.8565 15.5242C13.7789 15.5242 12.9053 16.3978 12.9053 17.4755C12.9053 18.5532 13.7789 19.4268 14.8565 19.4268C15.9342 19.4268 16.8078 18.5532 16.8078 17.4755Z" fill="#4CAF50"/>
<path d="M6.34938 12.5757C6.4348 12.9328 6.79347 13.153 7.1505 13.0675C7.50754 12.9821 7.72775 12.6235 7.64234 12.2664L6.67655 8.22923C6.59113 7.8722 6.23246 7.65198 5.87543 7.73739C5.51839 7.8228 5.29822 8.18152 5.38363 8.53855L6.34938 12.5757Z" fill="#4CAF50"/>
<path d="M6.02935 9.04883L6.04652 9.04862C6.4057 9.03951 6.69407 8.74548 6.69407 8.38411C6.69407 8.02274 6.4057 7.72871 6.04652 7.7196L6.02935 7.71939H3.59734C3.23022 7.71939 2.93262 8.01699 2.93262 8.38411C2.93262 8.75122 3.23022 9.04883 3.59734 9.04883H6.02935Z" fill="#4CAF50"/>
</svg>
