<svg width="22" height="17" viewBox="0 0 22 17" fill="none" xmlns="http://www.w3.org/2000/svg">
<path d="M11.8713 13.0821H3.41817C2.86424 13.0815 2.33316 12.8612 1.94146 12.4695C1.54977 12.0778 1.32946 11.5467 1.32888 10.9928V3.42555C1.32888 2.26943 2.26648 1.32888 3.41817 1.32888H17.209C17.7639 1.33044 18.2955 1.55208 18.6872 1.94515C19.0789 2.33823 19.2987 2.87064 19.2983 3.42555V6.14237C19.2983 6.31859 19.3683 6.4876 19.4929 6.6122C19.6175 6.73681 19.7865 6.80681 19.9627 6.80681C20.1389 6.80681 20.3079 6.73681 20.4325 6.6122C20.5571 6.4876 20.6271 6.31859 20.6271 6.14237V3.42555C20.6271 2.51832 20.2673 1.64813 19.6264 1.00593C18.9856 0.363724 18.1162 0.00195525 17.209 0H3.41817C2.51094 0.00195525 1.64153 0.363724 1.00071 1.00593C0.35989 1.64813 -2.10694e-06 2.51832 0 3.42555V10.9928C0.000977095 11.899 0.361418 12.7679 1.00224 13.4087C1.64306 14.0495 2.51191 14.41 3.41817 14.4109H11.8713C12.0475 14.4109 12.2165 14.3409 12.3411 14.2163C12.4657 14.0917 12.5357 13.9227 12.5357 13.7465C12.5357 13.5703 12.4657 13.4013 12.3411 13.2767C12.2165 13.1521 12.0475 13.0821 11.8713 13.0821Z" fill="#4CAF50"/>
<path d="M10.3137 3.65602C9.57605 3.657 8.86887 3.95047 8.34726 4.47208C7.82565 4.99369 7.53218 5.70087 7.5312 6.43854V7.97487C7.5312 9.50899 8.77887 10.7574 10.3137 10.7574C11.8486 10.7574 13.0962 9.50899 13.0962 7.97487V6.43854C13.0953 5.70087 12.8018 4.99369 12.2802 4.47208C11.7586 3.95047 11.0514 3.657 10.3137 3.65602ZM11.7674 7.97487C11.7672 8.36035 11.614 8.72997 11.3414 9.00254C11.0688 9.27511 10.6992 9.42833 10.3137 9.42852C9.92837 9.42793 9.55897 9.2746 9.28649 9.00211C9.014 8.72963 8.86066 8.36023 8.86008 7.97487V6.43854C8.86008 5.63679 9.51197 4.9849 10.3137 4.9849C11.1155 4.9849 11.7674 5.63679 11.7674 6.43854V7.97487ZM3.42127 10.3255C3.24505 10.3255 3.07605 10.3955 2.95145 10.5201C2.82684 10.6447 2.75684 10.8137 2.75684 10.99C2.75684 11.1662 2.82684 11.3352 2.95145 11.4598C3.07605 11.5844 3.24505 11.6544 3.42127 11.6544H4.34042C4.51664 11.6544 4.68564 11.5844 4.81024 11.4598C4.93485 11.3352 5.00485 11.1662 5.00485 10.99C5.00485 10.8137 4.93485 10.6447 4.81024 10.5201C4.68564 10.3955 4.51664 10.3255 4.34042 10.3255H3.42127ZM16.287 2.75977C16.1108 2.75977 15.9418 2.82977 15.8172 2.95437C15.6926 3.07898 15.6226 3.24798 15.6226 3.4242C15.6226 3.60042 15.6926 3.76943 15.8172 3.89403C15.9418 4.01864 16.1108 4.08864 16.287 4.08864H17.2062C17.3824 4.08864 17.5514 4.01864 17.676 3.89403C17.8006 3.76943 17.8706 3.60042 17.8706 3.4242C17.8706 3.24798 17.8006 3.07898 17.676 2.95437C17.5514 2.82977 17.3824 2.75977 17.2062 2.75977H16.287ZM13.7902 9.9549V14.7817C13.7902 16.1556 15.8544 16.8739 17.8935 16.8739C19.9348 16.8739 22.0005 16.1549 22.0005 14.7817V9.9549C22.0005 7.20855 13.7902 7.2056 13.7902 9.9549ZM20.6738 12.3543C20.6539 12.4163 20.3933 12.7145 19.5598 12.9345C18.5786 13.1922 17.215 13.1929 16.2317 12.9345C15.3952 12.7138 15.1368 12.4178 15.1191 12.3683V11.5326C15.3502 11.6345 15.6034 11.7267 15.8884 11.8006C16.4849 11.9622 17.1781 12.0471 17.8935 12.0471C18.6111 12.0471 19.3065 11.9615 19.8957 11.802C20.1836 11.7275 20.4398 11.6345 20.6731 11.5311L20.6738 12.3543ZM17.8928 9.1908C19.6122 9.1908 20.5645 9.72973 20.6672 9.95343C20.6214 10.0361 20.3453 10.313 19.5546 10.5182C18.5867 10.7795 17.2136 10.7832 16.2287 10.5167C15.4018 10.3019 15.142 10.011 15.1191 9.96967V9.96524C15.19 9.7504 16.1438 9.1908 17.8928 9.1908ZM17.8928 15.5451C16.1386 15.5451 15.1841 14.9825 15.1184 14.7809V13.9467C15.3509 14.0501 15.6056 14.1431 15.8921 14.2191C16.4923 14.3771 17.184 14.4605 17.8928 14.4605C18.6044 14.4605 19.2977 14.3771 19.8979 14.2191C20.163 14.1495 20.422 14.0584 20.6723 13.9467L20.6731 14.7684C20.6066 14.9825 19.6498 15.5451 17.8928 15.5451Z" fill="#4CAF50"/>
</svg>
