<svg width="22" height="20" viewBox="0 0 22 20" fill="none" xmlns="http://www.w3.org/2000/svg">
<path d="M8.17251 17.6222H3.00977C2.14931 17.6222 1.44928 16.9251 1.44928 16.069V6.4217H20.547V8.98192C20.547 9.15597 20.6162 9.3229 20.7393 9.44598C20.8623 9.56905 21.0293 9.6382 21.2033 9.6382C21.3774 9.6382 21.5443 9.56905 21.6674 9.44598C21.7905 9.3229 21.8596 9.15597 21.8596 8.98192V3.00248C21.8588 2.24267 21.5566 1.5142 21.0194 0.976932C20.4821 0.439666 19.7536 0.137491 18.9938 0.136719H3.00977C2.24905 0.136716 1.51938 0.43841 0.980789 0.975636C0.442197 1.51286 0.13865 2.24176 0.136719 3.00248V16.0697C0.13865 16.8305 0.442197 17.5594 0.980789 18.0966C1.51938 18.6338 2.24905 18.9355 3.00977 18.9355H8.17251C8.34666 18.9355 8.51368 18.8663 8.63682 18.7432C8.75997 18.62 8.82915 18.453 8.82915 18.2789C8.82915 18.1047 8.75997 17.9377 8.63682 17.8145C8.51368 17.6914 8.34666 17.6222 8.17251 17.6222ZM3.00977 1.44855H18.9938C19.8506 1.44855 20.547 2.14567 20.547 3.00175V5.10841H1.44928V3.00248C1.44928 2.14567 2.14931 1.44855 3.00977 1.44855Z" fill="#4CAF50"/>
<path d="M0 3.00212L0.000311548 2.96482C0.0120006 2.18142 0.32881 1.43283 0.884218 0.878832C1.44844 0.316041 2.21286 -2.56679e-06 3.00978 0V0.136725C2.24906 0.136723 1.51939 0.438412 0.980797 0.975635L0.95574 1.00096C0.432804 1.53565 0.138627 2.25364 0.136725 3.00248V16.0697C0.138656 16.8304 0.44221 17.5593 0.980797 18.0966C1.51097 18.6254 2.22629 18.926 2.97413 18.9353L3.00978 18.9355H8.17253C8.34667 18.9355 8.51368 18.8663 8.63682 18.7432C8.75612 18.6239 8.82478 18.4634 8.82896 18.2952L8.82914 18.2789C8.82914 18.1047 8.75997 17.9377 8.63682 17.8145C8.51753 17.6952 8.35706 17.6266 8.18882 17.6224L8.17253 17.6222V17.4855C8.38293 17.4855 8.58471 17.5691 8.73349 17.7179C8.88228 17.8667 8.96586 18.0685 8.96586 18.2789C8.96586 18.4893 8.88227 18.6911 8.73349 18.8398C8.58471 18.9886 8.38294 19.0722 8.17253 19.0723H3.00978C2.21286 19.0723 1.44844 18.7562 0.884218 18.1934C0.320006 17.6306 0.00202262 16.867 0 16.0701V3.00212ZM8.17253 17.4855V17.6222H3.00978V17.4855H8.17253ZM20.4103 8.98193V6.55844H1.586V16.069C1.586 16.849 2.22425 17.4855 3.00978 17.4855V17.6222L2.96954 17.6217C2.1276 17.6004 1.44928 16.9117 1.44928 16.069V6.42171H20.547V8.98193L20.5473 8.99822C20.5514 9.16637 20.62 9.32677 20.7393 9.446C20.8585 9.56523 21.0189 9.63383 21.187 9.638L21.2033 9.63822C21.3719 9.63822 21.5339 9.5733 21.6557 9.45735L21.6674 9.446C21.7866 9.32677 21.8552 9.16637 21.8594 8.99822L21.8596 8.98193V3.00248C21.8588 2.24267 21.5566 1.51419 21.0194 0.976925C20.4821 0.439664 19.7536 0.137497 18.9938 0.136725H3.00978V0H18.994C19.79 0.000808963 20.5532 0.317388 21.1161 0.880256C21.6789 1.44313 21.9955 2.20632 21.9963 3.00234V8.98193C21.9963 9.19224 21.9128 9.39395 21.7641 9.54267C21.6154 9.69138 21.4136 9.77495 21.2033 9.77495C20.993 9.77495 20.7913 9.69138 20.6426 9.54267C20.4939 9.39395 20.4103 9.19224 20.4103 8.98193ZM20.4103 3.00176C20.4103 2.22115 19.7751 1.58529 18.9938 1.58529H3.00978C2.22429 1.58529 1.586 2.22172 1.586 3.00248V4.97168H20.4103V3.00176ZM20.547 5.10841H1.44928V3.00248C1.44928 2.15906 2.1276 1.47038 2.96954 1.44905L3.00978 1.44856H18.9938L19.0339 1.44905C19.8722 1.47037 20.547 2.15906 20.547 3.00176V5.10841Z" fill="#4CAF50"/>
<path d="M3.92593 3.90459C4.09302 3.90459 4.25327 3.83821 4.37143 3.72006C4.48958 3.6019 4.55596 3.44165 4.55596 3.27456C4.55596 3.10747 4.48958 2.94722 4.37143 2.82906C4.25327 2.71091 4.09302 2.64453 3.92593 2.64453C3.75883 2.64453 3.59858 2.71091 3.48043 2.82906C3.36228 2.94722 3.2959 3.10747 3.2959 3.27456C3.2959 3.44165 3.36228 3.6019 3.48043 3.72006C3.59858 3.83821 3.75883 3.90459 3.92593 3.90459ZM6.14634 3.90459C6.31344 3.90459 6.47369 3.83821 6.59184 3.72006C6.70999 3.6019 6.77637 3.44165 6.77637 3.27456C6.77637 3.10747 6.70999 2.94722 6.59184 2.82906C6.47369 2.71091 6.31344 2.64453 6.14634 2.64453C5.97925 2.64453 5.819 2.71091 5.70084 2.82906C5.58269 2.94722 5.51631 3.10747 5.51631 3.27456C5.51631 3.44165 5.58269 3.6019 5.70084 3.72006C5.819 3.83821 5.97925 3.90459 6.14634 3.90459ZM8.36676 3.90459C8.53385 3.90459 8.6941 3.83821 8.81225 3.72006C8.93041 3.6019 8.99679 3.44165 8.99679 3.27456C8.99679 3.10747 8.93041 2.94722 8.81225 2.82906C8.6941 2.71091 8.53385 2.64453 8.36676 2.64453C8.19966 2.64453 8.03941 2.71091 7.92126 2.82906C7.80311 2.94722 7.73673 3.10747 7.73673 3.27456C7.73673 3.44165 7.80311 3.6019 7.92126 3.72006C8.03941 3.83821 8.19966 3.90459 8.36676 3.90459ZM21.4916 11.7646C20.7741 11.1171 19.735 10.7459 18.6419 10.7459C17.6845 10.7459 16.7657 11.034 16.0729 11.5349C15.3802 11.0333 14.4614 10.7459 13.504 10.7459C12.4109 10.7459 11.3718 11.1171 10.655 11.7639C10.5367 11.8725 10.4425 12.0048 10.3786 12.1522C10.3146 12.2995 10.2824 12.4586 10.2838 12.6193V17.2737C10.2838 17.6828 10.4916 18.0518 10.8402 18.2618C11.0158 18.368 11.2162 18.4264 11.4213 18.4313C11.6265 18.4362 11.8294 18.3873 12.0098 18.2895C12.4722 18.0527 12.9852 17.9318 13.5047 17.9373C14.3477 17.9373 15.1286 18.2341 15.5953 18.7307C15.6567 18.7959 15.7309 18.8479 15.8131 18.8835C15.8954 18.919 15.9841 18.9373 16.0737 18.9373C16.1633 18.9373 16.2519 18.919 16.3342 18.8835C16.4165 18.8479 16.4906 18.7959 16.552 18.7307C17.0187 18.2334 17.7997 17.9373 18.6426 17.9373C19.1852 17.9373 19.7022 18.0591 20.1375 18.2895C20.318 18.3871 20.5209 18.4359 20.726 18.4311C20.9312 18.4262 21.1315 18.3679 21.3071 18.2618C21.6557 18.0518 21.8635 17.6828 21.8635 17.2737V12.6193C21.8645 12.4588 21.832 12.2998 21.7679 12.1526C21.7039 12.0055 21.6098 11.8733 21.4916 11.7646ZM11.5957 17.0309V12.6856C12.074 12.2867 12.7638 12.0592 13.504 12.0592C14.2543 12.0592 14.9427 12.3042 15.4167 12.7068V17.0426C14.8164 16.7682 14.164 16.6265 13.504 16.6269C12.8462 16.6223 12.1952 16.7601 11.5957 17.0309ZM20.5502 17.0309C19.3908 16.4971 17.885 16.5329 16.7292 17.0499V12.706C17.2032 12.3035 17.8916 12.0585 18.6419 12.0585C19.3813 12.0585 20.0711 12.286 20.5502 12.6849V17.0309Z" fill="#4CAF50"/>
<path d="M21.8635 12.6193C21.8645 12.4688 21.8359 12.3197 21.7796 12.1804L21.7679 12.1526C21.7079 12.0147 21.6214 11.8899 21.5135 11.7853L21.4916 11.7647C20.7741 11.1171 19.735 10.7459 18.6419 10.7459C17.6845 10.7459 16.7657 11.034 16.0729 11.535L16.0403 11.5116C15.3624 11.0321 14.4751 10.7548 13.5488 10.7462L13.504 10.7459C12.4109 10.7459 11.3718 11.1171 10.655 11.7639C10.5367 11.8725 10.4425 12.0048 10.3786 12.1522L10.367 12.18C10.3108 12.3194 10.2825 12.4687 10.2838 12.6193V17.2738L10.2845 17.312C10.297 17.7057 10.5026 18.0584 10.8402 18.2618C11.0158 18.368 11.2162 18.4264 11.4213 18.4313C11.6265 18.4362 11.8294 18.3873 12.0099 18.2895C12.4722 18.0527 12.9852 17.9318 13.5047 17.9373C14.3477 17.9373 15.1286 18.2341 15.5953 18.7307C15.6568 18.7959 15.7309 18.8479 15.8131 18.8835C15.8903 18.9168 15.973 18.935 16.0569 18.9371L16.0737 18.9373C16.1577 18.9373 16.2409 18.9212 16.3187 18.8899L16.3342 18.8835C16.4114 18.8502 16.4813 18.8024 16.5404 18.7428L16.552 18.7307C17.0187 18.2334 17.7997 17.9373 18.6427 17.9373L18.6935 17.9377C19.2174 17.945 19.7158 18.0663 20.1375 18.2895C20.3067 18.3811 20.4956 18.4297 20.6876 18.4314L20.726 18.4311C20.9312 18.4262 21.1315 18.3679 21.3072 18.2618C21.6448 18.0584 21.8504 17.7057 21.8629 17.312L21.8635 17.2738V12.6193ZM18.6419 12.0585C19.3813 12.0585 20.0711 12.286 20.5502 12.6849V17.0309C19.3908 16.4972 17.885 16.5329 16.7292 17.0499V12.706C17.2032 12.3035 17.8916 12.0585 18.6419 12.0585ZM13.5391 12.0594C14.2758 12.0669 14.9501 12.3106 15.4167 12.7068V17.0426C14.8351 16.7768 14.2047 16.6355 13.5658 16.6273L13.504 16.6269C12.8462 16.6223 12.1952 16.7601 11.5957 17.0309V12.6856C12.074 12.2868 12.7639 12.0592 13.504 12.0592L13.5391 12.0594ZM18.6419 12.1952C17.9453 12.1952 17.3105 12.4149 16.866 12.7705V16.8445C17.9607 16.4164 19.3114 16.3867 20.4135 16.8239V12.7503C19.9652 12.3996 19.3297 12.1952 18.6419 12.1952ZM13.504 12.196C12.8154 12.196 12.1799 12.4004 11.7324 12.7509V16.8244C12.2759 16.6076 12.8555 16.494 13.4415 16.4902H13.5049C14.1139 16.4899 14.7165 16.6073 15.28 16.835V12.7713C14.8354 12.4157 14.2006 12.196 13.504 12.196ZM4.55598 3.27458C4.55598 3.10748 4.48957 2.94722 4.37141 2.82906C4.25695 2.71461 4.10299 2.64872 3.94157 2.64472L3.92594 2.64454C3.75885 2.64454 3.59858 2.71091 3.48043 2.82906C3.36228 2.94722 3.2959 3.10748 3.2959 3.27458L3.29608 3.2902C3.30008 3.45162 3.36597 3.60558 3.48043 3.72005C3.59489 3.8345 3.74886 3.90038 3.91028 3.90439L3.92594 3.90462C4.09303 3.90461 4.25326 3.8382 4.37141 3.72005C4.48588 3.60558 4.55176 3.45163 4.55576 3.2902L4.55598 3.27458ZM6.77638 3.27458C6.77638 3.1127 6.71407 2.95725 6.60276 2.84028L6.59186 2.82906C6.47371 2.71091 6.31344 2.64454 6.14635 2.64454C5.97925 2.64454 5.81899 2.71091 5.70083 2.82906C5.58268 2.94722 5.51631 3.10749 5.51631 3.27458L5.51653 3.2902C5.52053 3.45162 5.58638 3.60558 5.70083 3.72005C5.8153 3.83451 5.96929 3.90039 6.13072 3.90439L6.14635 3.90462C6.30822 3.90462 6.46367 3.8423 6.58064 3.73099L6.59186 3.72005C6.70631 3.60558 6.77216 3.45162 6.77616 3.2902L6.77638 3.27458ZM8.99679 3.27458C8.99679 3.1127 8.93448 2.95726 8.82317 2.84028L8.81226 2.82906C8.69411 2.71091 8.53384 2.64454 8.36675 2.64454C8.19966 2.64454 8.03943 2.71092 7.92128 2.82906L7.91033 2.84028C7.79902 2.95725 7.73675 3.11271 7.73675 3.27458L7.73693 3.2902C7.74093 3.45163 7.80682 3.60558 7.92128 3.72005C8.03574 3.83451 8.1897 3.90039 8.35113 3.90439L8.36675 3.90462C8.52862 3.90462 8.68407 3.8423 8.80105 3.73099L8.81226 3.72005C8.92672 3.60558 8.99261 3.45162 8.99661 3.2902L8.99679 3.27458ZM22.0003 17.2738C22.0003 17.7304 21.7676 18.1439 21.3778 18.3788C21.1817 18.4972 20.9582 18.5623 20.7292 18.5678C20.5007 18.5732 20.2747 18.5189 20.0736 18.4104L20.0345 18.3901C19.6289 18.1842 19.1489 18.074 18.6427 18.074C17.8279 18.074 17.0867 18.3608 16.6517 18.8242L16.6516 18.8244C16.5774 18.9032 16.4878 18.9661 16.3884 19.009C16.2891 19.0519 16.1819 19.0741 16.0737 19.0741C15.9654 19.0741 15.8583 19.0519 15.7589 19.009C15.6596 18.9661 15.57 18.9032 15.4958 18.8244L15.4957 18.8243C15.0607 18.3615 14.3194 18.074 13.5047 18.074H13.5032C13.0063 18.0688 12.5155 18.1843 12.0731 18.4107C11.8722 18.5192 11.6464 18.5734 11.4181 18.568C11.1891 18.5625 10.9655 18.4974 10.7695 18.3788V18.3788C10.3797 18.1439 10.1471 17.7304 10.1471 17.2738V12.6193C10.1456 12.4399 10.1818 12.2623 10.2532 12.0977C10.3247 11.9328 10.4301 11.7848 10.5625 11.6632L10.5629 11.6628L10.5634 11.6624C11.3087 10.9899 12.3819 10.6092 13.504 10.6092C14.4513 10.6092 15.3652 10.8828 16.073 11.3678C16.7807 10.8835 17.6945 10.6092 18.6419 10.6092C19.764 10.6092 20.8372 10.9899 21.5832 11.6631L21.5842 11.664C21.7164 11.7856 21.8216 11.9335 21.8933 12.0981C21.9648 12.2625 22.0013 12.44 22.0003 12.6193V17.2738ZM4.69271 3.27458C4.69271 3.47793 4.61192 3.67297 4.46813 3.81676C4.32433 3.96055 4.1293 4.04134 3.92594 4.04134C3.72259 4.04134 3.52755 3.96055 3.38376 3.81676C3.23997 3.67297 3.15918 3.47793 3.15918 3.27458C3.15918 3.07122 3.23997 2.87619 3.38376 2.73239C3.52756 2.5886 3.72259 2.50781 3.92594 2.50781C4.1293 2.50782 4.32433 2.5886 4.46813 2.73239C4.61191 2.87619 4.69271 3.07123 4.69271 3.27458ZM6.91311 3.27458C6.91311 3.47793 6.83232 3.67297 6.68853 3.81676C6.54473 3.96055 6.3497 4.04134 6.14635 4.04134C5.94299 4.04134 5.74796 3.96055 5.60416 3.81676C5.46037 3.67297 5.37958 3.47793 5.37958 3.27458C5.37958 3.07122 5.46037 2.87619 5.60416 2.73239C5.74796 2.5886 5.94299 2.50781 6.14635 2.50781C6.3497 2.50781 6.54473 2.5886 6.68853 2.73239C6.83232 2.87619 6.91311 3.07122 6.91311 3.27458ZM9.13351 3.27458C9.13351 3.47793 9.05272 3.67297 8.90893 3.81676C8.76514 3.96055 8.5701 4.04134 8.36675 4.04134C8.1634 4.04134 7.96836 3.96055 7.82457 3.81676C7.68078 3.67297 7.60003 3.47793 7.60003 3.27458C7.60003 3.07123 7.68078 2.87619 7.82457 2.73239C7.96836 2.5886 8.1634 2.50782 8.36675 2.50781C8.5701 2.50781 8.76514 2.5886 8.90893 2.73239C9.05273 2.87619 9.13351 3.07122 9.13351 3.27458Z" fill="#4CAF50"/>
</svg>
