<svg width="22" height="22" viewBox="0 0 22 22" fill="none" xmlns="http://www.w3.org/2000/svg">
<path d="M4.2244 16.4515H3.34143V11.5951H0.250977V10.0807L11.8799 0.328125L17.4119 4.96823L16.8424 5.64373L11.8799 1.48483L1.13395 10.4958V10.7121H4.2244V16.4515ZM6.87337 21.7495H3.34143V17.776H6.87337V21.7495ZM4.2244 20.8665H5.99039V18.659H4.2244V20.8665ZM11.7298 21.7495H8.19787V13.8026H11.7298V21.7495ZM9.08085 20.8665H10.8468V14.6855H9.08085V20.8665ZM16.5863 21.7495H13.0543V9.82909H16.5863V21.7495ZM13.9373 20.8665H15.7033V10.7121H13.9373V20.8665ZM21.4427 21.7495H17.9108V5.85566H21.4427V21.7495ZM18.7937 20.8665H20.5597V6.73863H18.7937V20.8665Z" fill="#4CAF50"/>
<path d="M6.87341 17.7755H3.34149V21.749H6.87341V17.7755ZM11.7299 13.8021H8.19794V21.749H11.7299V13.8021ZM16.5863 9.82858H13.0544V21.749H16.5863V9.82858ZM21.4427 5.85519H17.9108V21.749H21.4427V5.85519ZM5.99043 18.6585V20.866H4.22447V18.6585H5.99043ZM10.8469 14.685V20.866H9.08088V14.685H10.8469ZM15.7033 10.7116V20.866H13.9373V10.7116H15.7033ZM20.5598 6.73817V20.866H18.7938V6.73817H20.5598ZM19.0448 20.615H20.3088V6.9892H19.0448V20.615ZM14.1884 20.615H15.4523V10.9626H14.1884V20.615ZM9.33191 20.615H10.5959V14.9361H9.33191V20.615ZM4.4755 20.615H5.7394V18.9095H4.4755V20.615ZM0 9.96317L11.88 0L17.7661 4.93715L16.873 5.99643L11.88 1.81189L1.56608 10.4606H4.4755V16.7021H3.09045V11.8456H0V9.96317ZM7.12444 22H3.09045V17.5245H7.12444V22ZM11.9809 22H7.94691V13.551H11.9809V22ZM0.251031 11.5946H3.34149V16.451H4.22447V10.7116H1.13401V10.4953L11.88 1.48437L16.8424 5.64326L17.4119 4.96775L11.88 0.32764L0.251031 10.0803V11.5946ZM16.8374 22H12.8033V9.57755H16.8374V22ZM21.6938 22H17.6598V5.60416H21.6938V22Z" fill="#4CAF50"/>
</svg>
