<svg width="22" height="20" viewBox="0 0 22 20" fill="none" xmlns="http://www.w3.org/2000/svg">
<path d="M6.62768 13.4107C6.62768 13.8436 6.46848 14.3645 6.17925 14.9365C5.89395 15.5006 5.50637 16.0673 5.10713 16.579C4.70943 17.0887 4.3101 17.5312 4.0095 17.8467C3.99209 17.865 3.97502 17.8828 3.95831 17.9002C3.94161 17.8828 3.92454 17.865 3.90713 17.8467C3.60653 17.5312 3.20716 17.0887 2.80946 16.579C2.4102 16.0673 2.02264 15.5006 1.73734 14.9364C1.44811 14.3645 1.28891 13.8436 1.28891 13.4107C1.28891 11.9365 2.48403 10.7414 3.95831 10.7414C5.43255 10.7414 6.62768 11.9365 6.62768 13.4107ZM7.91659 13.4107C7.91659 11.2246 6.14439 9.45245 3.95831 9.45245C1.7722 9.45245 0 11.2246 0 13.4107C1.30815e-06 14.1308 0.255033 14.8614 0.587141 15.5181C0.923187 16.1826 1.3641 16.8218 1.79331 17.3719C2.22407 17.9239 2.65318 18.3991 2.97393 18.7358C3.13466 18.9045 3.26906 19.0394 3.36404 19.1328C3.41155 19.1795 3.44929 19.2159 3.47556 19.241C3.48869 19.2536 3.49896 19.2633 3.50619 19.2702C3.5098 19.2736 3.51265 19.2763 3.51471 19.2782C3.51573 19.2792 3.51659 19.2799 3.51722 19.2805C3.51754 19.2808 3.51781 19.2811 3.51802 19.2813C3.51813 19.2814 3.51826 19.2815 3.51831 19.2815C3.51889 19.2811 3.53246 19.2668 3.91615 18.8559L3.51848 19.2818L3.95831 19.6924L4.3981 19.2818L3.95831 18.8107C4.38395 19.2666 4.39776 19.2812 4.39831 19.2815C4.39837 19.2815 4.3985 19.2814 4.39861 19.2813C4.39882 19.2811 4.39909 19.2808 4.3994 19.2805C4.40004 19.2799 4.40089 19.2792 4.40192 19.2782C4.40398 19.2763 4.40684 19.2736 4.41044 19.2702C4.41766 19.2633 4.42793 19.2536 4.44107 19.241C4.46734 19.2159 4.50508 19.1795 4.55259 19.1328C4.64757 19.0394 4.78197 18.9045 4.9427 18.7358C5.26345 18.3991 5.69256 17.9239 6.12332 17.3719C6.55252 16.8218 6.9934 16.1826 7.32945 15.5181C7.66155 14.8614 7.91658 14.1308 7.91659 13.4107Z" fill="#4CAF50"/>
<path d="M3.95729 13.419C3.95646 13.4189 3.95562 13.4186 3.95485 13.4182C3.9534 13.4176 3.9527 13.417 3.95242 13.4167C3.95214 13.4164 3.95153 13.4157 3.95091 13.4143C3.95058 13.4135 3.95028 13.4127 3.95011 13.4119C3.95001 13.4114 3.95 13.411 3.94999 13.4108L3.95011 13.4098C3.95028 13.409 3.95058 13.4082 3.95091 13.4074C3.95153 13.4059 3.95213 13.4052 3.95242 13.4049C3.95271 13.4046 3.95341 13.404 3.95485 13.4034C3.95562 13.4031 3.95647 13.4028 3.95729 13.4027C3.95778 13.4026 3.95814 13.4025 3.95829 13.4025C3.95805 13.4025 3.95845 13.4025 3.9593 13.4027C3.96012 13.4028 3.96096 13.4031 3.96173 13.4034C3.9632 13.404 3.96392 13.4046 3.96421 13.4049C3.96449 13.4052 3.9651 13.4059 3.96572 13.4074C3.96604 13.4082 3.96631 13.409 3.96647 13.4098C3.96665 13.4107 3.96664 13.4111 3.96664 13.4108C3.96663 13.411 3.96657 13.4114 3.96647 13.4119C3.9663 13.4127 3.96604 13.4135 3.96572 13.4143C3.96511 13.4157 3.9645 13.4164 3.96421 13.4167C3.96392 13.417 3.9632 13.4176 3.96173 13.4182C3.96096 13.4186 3.96012 13.4189 3.9593 13.419L3.95829 13.4192C3.95814 13.4191 3.95778 13.4191 3.95729 13.419ZM5.23889 13.4108C5.23889 12.7036 4.66553 12.1302 3.95829 12.1302C3.25106 12.1303 2.67773 12.7036 2.67773 13.4108C2.67774 14.1181 3.25107 14.6914 3.95829 14.6914C4.66552 14.6914 5.23889 14.1181 5.23889 13.4108Z" fill="#4CAF50"/>
<path d="M20.7107 3.9576C20.7107 4.39047 20.5515 4.9114 20.2623 5.48335C19.977 6.04751 19.5894 6.61419 19.1901 7.12587C18.7924 7.63556 18.3931 8.07806 18.0925 8.39359C18.0751 8.41186 18.058 8.42969 18.0413 8.44708C18.0246 8.42969 18.0075 8.41186 17.9901 8.39359C17.6895 8.07806 17.2902 7.63556 16.8925 7.12587C16.4932 6.61418 16.1056 6.04747 15.8203 5.48331C15.5311 4.91136 15.3719 4.39046 15.3719 3.9576C15.3719 2.48337 16.567 1.28823 18.0413 1.28823C19.5156 1.28823 20.7107 2.48336 20.7107 3.9576ZM21.9996 3.9576C21.9996 1.77152 20.2274 -0.0006753 18.0413 -0.00067674C15.8552 -0.00067674 14.083 1.77151 14.083 3.9576C14.083 4.67769 14.338 5.40827 14.6701 6.06499C15.0062 6.7295 15.4471 7.36869 15.8763 7.91876C16.3071 8.47082 16.7362 8.94597 17.0569 9.28265C17.2177 9.45135 17.3521 9.58624 17.447 9.67964C17.4946 9.72636 17.5323 9.76275 17.5586 9.78789C17.5717 9.80045 17.582 9.81022 17.5892 9.81705C17.5928 9.82046 17.5957 9.82317 17.5977 9.8251C17.5987 9.82607 17.5996 9.82682 17.6002 9.82741C17.6005 9.82771 17.6008 9.82797 17.601 9.82817C17.6011 9.82827 17.6013 9.82837 17.6013 9.82842C17.6019 9.82801 17.6155 9.81366 17.9992 9.40273L17.6015 9.82863L18.0413 10.2393L18.4811 9.82863L18.0413 9.35758C18.467 9.81345 18.4808 9.82804 18.4813 9.82842C18.4814 9.82837 18.4815 9.82827 18.4816 9.82817C18.4818 9.82797 18.4821 9.82771 18.4824 9.82741C18.483 9.82682 18.4839 9.82603 18.4849 9.82506C18.487 9.82313 18.4898 9.82045 18.4934 9.81705C18.5007 9.81022 18.5109 9.80045 18.5241 9.78789C18.5503 9.76275 18.5881 9.72636 18.6356 9.67964C18.7306 9.58624 18.865 9.45136 19.0257 9.28265C19.3465 8.94597 19.7756 8.47082 20.2063 7.91876C20.6355 7.36869 21.0764 6.7295 21.4125 6.06499C21.7446 5.40827 21.9996 4.67769 21.9996 3.9576Z" fill="#4CAF50"/>
<path d="M18.0403 3.9659C18.0395 3.96574 18.0386 3.96543 18.0379 3.96511C18.0364 3.96449 18.0357 3.96388 18.0354 3.9636C18.0351 3.96331 18.0345 3.96262 18.0339 3.96116C18.0336 3.96039 18.0333 3.95955 18.0331 3.95873C18.033 3.95824 18.033 3.95788 18.033 3.95772L18.0331 3.95672C18.0333 3.95589 18.0336 3.95505 18.0339 3.95428C18.0345 3.95282 18.0351 3.95209 18.0354 3.95181C18.0357 3.95152 18.0364 3.95091 18.0379 3.9503C18.0386 3.94997 18.0395 3.94971 18.0403 3.94954C18.0408 3.94944 18.0411 3.94939 18.0413 3.94937C18.0411 3.94937 18.0415 3.94937 18.0423 3.94954C18.0431 3.94971 18.044 3.94997 18.0447 3.9503C18.0462 3.95092 18.0469 3.95152 18.0472 3.95181C18.0475 3.95209 18.0481 3.95282 18.0487 3.95428C18.0491 3.95505 18.0493 3.9559 18.0495 3.95672C18.0497 3.95756 18.0497 3.95797 18.0496 3.95772C18.0496 3.95788 18.0496 3.95824 18.0495 3.95873C18.0493 3.95955 18.0491 3.9604 18.0487 3.96116C18.0481 3.96261 18.0475 3.96331 18.0472 3.9636C18.0469 3.96388 18.0462 3.96449 18.0447 3.96511C18.044 3.96543 18.0431 3.96574 18.0423 3.9659L18.0413 3.96603C18.0411 3.96602 18.0408 3.966 18.0403 3.9659ZM19.3219 3.95772C19.3219 3.25049 18.7485 2.67712 18.0413 2.67712C17.3341 2.67713 16.7607 3.25049 16.7607 3.95772C16.7607 4.66495 17.3341 5.23827 18.0413 5.23828C18.7485 5.23828 19.3219 4.66495 19.3219 3.95772Z" fill="#4CAF50"/>
<path d="M9.06645 11.7212C9.06645 13.3822 10.413 14.7288 12.074 14.7288H15.6785C16.6277 14.7288 17.3971 15.4983 17.3972 16.4475V16.4475C17.3972 17.3967 16.6277 18.1662 15.6785 18.1662H6.53613V19.4551H15.6785C17.3395 19.4551 18.6861 18.1085 18.6861 16.4475V16.4475C18.6861 14.7864 17.3395 13.4399 15.6785 13.4399H12.074C11.1249 13.4399 10.3554 12.6704 10.3554 11.7212C10.3554 10.772 11.1249 10.0025 12.074 10.0025H15.4637V8.71359H12.074C10.413 8.7136 9.06646 10.0602 9.06645 11.7212Z" fill="#4CAF50"/>
</svg>
