<svg width="17" height="22" viewBox="0 0 17 22" fill="none" xmlns="http://www.w3.org/2000/svg">
<path d="M6.47059 9.70588H10.3529C10.7088 9.70588 11 9.99706 11 10.3529C11 10.7088 10.7088 11 10.3529 11H6.47059C6.11471 11 5.82353 10.7088 5.82353 10.3529C5.82353 9.99706 6.11471 9.70588 6.47059 9.70588ZM16.8235 8.41176V20.0588C16.8235 21.2235 15.2641 22 14.2353 22H1.94118C0.873529 22 0 21.1265 0 20.0588V8.41176C0 7.19529 0.472353 6.05647 1.33294 5.20882C1.69529 4.84 2.12235 4.54235 2.58824 4.32235V1.29412H1.94118C1.58529 1.29412 1.29412 1.00294 1.29412 0.647059C1.29412 0.291176 1.58529 0 1.94118 0H7.11765C7.47353 0 7.76471 0.291176 7.76471 0.647059C7.76471 1.00294 7.47353 1.29412 7.11765 1.29412H6.47059V4.32235C6.93647 4.54235 7.37 4.84647 7.73235 5.21529C7.99765 5.48059 8.22412 5.77176 8.41176 6.08882C8.75801 5.51266 9.22781 5.02052 9.78728 4.64791C10.3468 4.2753 10.982 4.03151 11.6471 3.93412V3.23529C11.6471 2.16765 12.5206 1.29412 13.5882 1.29412C13.9441 1.29412 14.2353 1.58529 14.2353 1.94118C14.2353 2.29706 13.9441 2.58824 13.5882 2.58824C13.2324 2.58824 12.9412 2.87941 12.9412 3.23529V3.93412C15.1347 4.25118 16.8235 6.13412 16.8235 8.41176ZM9.12353 7.76471H15.4647C15.3162 7.03334 14.9194 6.37581 14.3416 5.90352C13.7637 5.43123 13.0404 5.17323 12.2941 5.17323C11.5478 5.17323 10.8245 5.43123 10.2467 5.90352C9.66882 6.37581 9.27204 7.03334 9.12353 7.76471ZM1.35882 7.76471H7.7C7.57706 7.14353 7.27294 6.58059 6.81353 6.12765C6.47614 5.78581 6.06422 5.5267 5.61 5.37059C5.48148 5.32718 5.36985 5.24448 5.2909 5.13417C5.21194 5.02387 5.16965 4.89153 5.17 4.75588V1.29412H3.87588V4.75588C3.87623 4.89153 3.83394 5.02387 3.75498 5.13417C3.67603 5.24448 3.5644 5.32718 3.43588 5.37059C2.98941 5.52588 2.57529 5.78471 2.23882 6.12765C1.77941 6.58706 1.47529 7.15 1.35235 7.77118L1.35882 7.76471ZM15.5294 9.05882H1.29412V20.0588C1.29412 20.4147 1.58529 20.7059 1.94118 20.7059H14.2353C14.7659 20.7059 15.5035 20.2659 15.5294 20.0588V9.05882Z" fill="#4CAF50"/>
</svg>
