<svg width="22" height="20" viewBox="0 0 22 20" fill="none" xmlns="http://www.w3.org/2000/svg">
<path d="M10.5168 19.6707C10.784 19.9366 11.216 19.9366 11.4832 19.6707L19.748 11.4488C19.7484 11.4483 19.7488 11.4479 19.7493 11.4475C21.3527 9.84405 22.0355 8.04111 21.9986 6.3234C21.9619 4.61761 21.2164 3.05406 20.0692 1.91274C18.9219 0.771413 17.3531 0.0326743 15.6445 0.000518487C14.0952 -0.0286341 12.4774 0.524005 11 1.8051C9.52252 0.524021 7.90483 -0.028634 6.35555 0.000518487C4.64687 0.0326754 3.0781 0.771414 1.93083 1.91274C0.783565 3.05406 0.0381316 4.61761 0.00142035 6.3234C-0.0355447 8.04111 0.647294 9.84405 2.25075 11.4475L2.252 11.4488L10.5168 19.6707ZM3.21844 10.4773C1.8538 9.11204 1.34327 7.66091 1.37142 6.35289C1.39983 5.03255 1.97835 3.79836 2.89727 2.8842C3.81619 1.97004 5.05586 1.39554 6.38135 1.3706C7.69502 1.34588 9.14992 1.85995 10.5155 3.22553L10.5277 3.23745C10.6549 3.35849 10.824 3.42622 11 3.42622C11.1817 3.42621 11.356 3.35402 11.4845 3.22553C12.8501 1.85995 14.305 1.34588 15.6187 1.3706C16.9441 1.39554 18.1838 1.97005 19.1027 2.8842C20.0217 3.79836 20.6002 5.03255 20.6286 6.35289C20.6567 7.66091 20.1462 9.11203 18.7816 10.4773L11 18.2185L3.21844 10.4773Z" fill="#4CAF50"/>
<path d="M9.06417 13.0635C9.20011 13.2619 9.43078 13.375 9.67197 13.36C9.92093 13.3445 10.1418 13.1949 10.2486 12.9695L12.7517 7.68502L14.5074 10.9455C14.6269 11.1675 14.8586 11.3058 15.1107 11.3058H19.5642L19.5819 11.3056C19.9522 11.2962 20.2494 10.9932 20.2494 10.6207C20.2494 10.2482 19.9522 9.94515 19.5819 9.93576L19.5642 9.93551H15.52L13.3159 5.8423C13.1934 5.61478 12.9533 5.47553 12.6949 5.48219C12.4366 5.48886 12.204 5.6403 12.0934 5.87383L9.54128 11.2616L7.80934 8.53993C7.68185 8.33959 7.45972 8.21956 7.22229 8.22269C6.98484 8.22581 6.76593 8.35165 6.64376 8.55527L5.81566 9.93551H2.43516C2.05676 9.93551 1.75 10.2423 1.75 10.6207C1.75 10.9991 2.05676 11.3058 2.43516 11.3058H6.20357L6.22607 11.3055C6.45807 11.2979 6.67113 11.1731 6.79109 10.9732L7.24842 10.2109L9.05133 13.044L9.06417 13.0635Z" fill="#4CAF50"/>
</svg>
