<svg width="26" height="26" viewBox="0 0 26 26" fill="none" xmlns="http://www.w3.org/2000/svg">
<path d="M14.9561 20.0615C16.4925 20.0617 17.741 21.2777 17.7998 22.7998H18.5684C19.2311 22.7998 19.7686 23.3373 19.7686 24C19.7686 24.6627 19.2311 25.2002 18.5684 25.2002H2C1.33726 25.2002 0.799805 24.6627 0.799805 24C0.799805 23.3373 1.33726 22.7998 2 22.7998H2.76855C2.82734 21.2776 4.07667 20.0615 5.61328 20.0615V21.2617L5.44434 21.2695C4.61226 21.3539 3.96312 22.0569 3.96289 22.9111V24H16.6055V22.9111C16.6052 22.0568 15.9562 21.3539 15.124 21.2695L14.9561 21.2617V20.0615ZM13.8799 0.799805C14.1981 0.79987 14.5035 0.92638 14.7285 1.15137L20.4082 6.83203C20.8768 7.30066 20.8768 8.06067 20.4082 8.5293L19.2344 9.70312C18.7072 10.2303 17.9861 10.4424 17.3008 10.3447L16.8857 10.7598L24.8486 18.7227C25.3172 19.1913 25.3172 19.9513 24.8486 20.4199L22.9121 22.3564C22.6871 22.5814 22.3817 22.708 22.0635 22.708C21.7453 22.708 21.4399 22.5815 21.2148 22.3564L13.252 14.3936L12.8369 14.8086C12.9345 15.4939 12.7225 16.2151 12.1953 16.7422L11.0215 17.916C10.5529 18.3846 9.79285 18.3846 9.32422 17.916L3.64355 12.2363C3.41859 12.0114 3.29209 11.7058 3.29199 11.3877C3.29199 11.0695 3.41866 10.7641 3.64355 10.5391L4.81836 9.36426L4.99121 9.20801C5.49668 8.79578 6.13745 8.63578 6.75 8.72266L11.2148 4.25781C11.1177 3.57305 11.3299 2.85294 11.8564 2.32617L13.0312 1.15137L13.1191 1.07129C13.3326 0.896451 13.6015 0.799804 13.8799 0.799805ZM14.5 12L13.2529 12.6963L22.0635 21.5078L24 19.5713L19.5596 15.5L15.2803 11.3877L14.5 12ZM14.9561 20.0615V21.2617H5.61328V20.0615H14.9561ZM7.19043 10.2129C6.76961 9.7923 6.08784 9.79227 5.66699 10.2129L4.49219 11.3877L10.1729 17.0674L11.3467 15.8936C11.7676 15.4727 11.7676 14.79 11.3467 14.3691L7.19043 10.2129ZM8.77051 10.0957L11.4629 12.7881L15.2803 8.9707L12.5879 6.27832L8.77051 10.0957ZM12.7051 3.1748C12.2846 3.59567 12.2845 4.27745 12.7051 4.69824L16.8613 8.85449C17.2559 9.24914 17.8804 9.27398 18.3037 8.92871L18.3857 8.85449L19.5596 7.68066L13.8799 2L12.7051 3.1748Z" fill="#4CAF50"/>
</svg>
