<svg width="22" height="21" viewBox="0 0 22 21" fill="none" xmlns="http://www.w3.org/2000/svg">
<path d="M21.8311 4.70521L20.7103 0.510039C20.6712 0.363746 20.5849 0.234451 20.4648 0.142226C20.3447 0.050001 20.1975 5.227e-06 20.046 0H1.95396C1.80253 5.227e-06 1.65535 0.050001 1.53524 0.142226C1.41514 0.234451 1.32884 0.363746 1.28975 0.510039L0.16891 4.70521C0.0520781 5.14241 0 5.53919 0 5.99173V7.49014C0 8.74289 0.842316 9.8019 1.9901 10.1325V17.6782C1.9901 19.1235 3.16594 20.2993 4.61119 20.2993H17.3888C18.834 20.2993 20.0099 19.1235 20.0099 17.6782V10.1325C21.1577 9.8019 22 8.74289 22 7.49014V5.99173C22 5.53919 21.9479 5.14241 21.8311 4.70521ZM2.48187 1.375H19.5181L20.4172 4.74014H1.5828L2.48187 1.375ZM16.5 7.49014C16.5 8.24832 15.8832 8.86514 15.125 8.86514C14.3668 8.86514 13.75 8.24832 13.75 7.49014V6.11514H16.5V7.49014ZM5.5 7.49014V6.11514H8.25V7.49014C8.25 8.24832 7.63318 8.86514 6.875 8.86514C6.11682 8.86514 5.5 8.24832 5.5 7.49014ZM9.625 7.49014V6.11514H12.375V7.49014C12.375 8.24832 11.7582 8.86514 11 8.86514C10.2418 8.86514 9.625 8.24832 9.625 7.49014ZM1.375 7.49014V6.11514H4.125V7.49014C4.125 8.24832 3.50818 8.86514 2.75 8.86514C1.99182 8.86514 1.375 8.24832 1.375 7.49014ZM12.5198 18.9244H9.48028V14.1842C9.48028 13.7653 9.82115 13.4243 10.2402 13.4243H11.7599C12.1789 13.4243 12.5198 13.7653 12.5198 14.1842V18.9244H12.5198ZM17.3888 18.9244H13.8948V14.1842C13.8948 13.0071 12.937 12.0493 11.7599 12.0493H10.2401C9.06297 12.0493 8.10524 13.007 8.10524 14.1842V18.9244H4.61119C3.92408 18.9244 3.3651 18.3654 3.3651 17.6783V10.1704C3.93504 10.0396 4.43816 9.73165 4.8125 9.30729C5.31678 9.87899 6.05451 10.2402 6.875 10.2402C7.69549 10.2402 8.43322 9.87899 8.9375 9.30725C9.44178 9.87899 10.1796 10.2402 11 10.2402C11.8204 10.2402 12.5582 9.87899 13.0625 9.30725C13.5668 9.87899 14.3046 10.2402 15.125 10.2402C15.9454 10.2402 16.6832 9.87899 17.1875 9.30729C17.5618 9.73165 18.0649 10.0396 18.6349 10.1704V17.6783C18.6349 18.3654 18.0759 18.9244 17.3888 18.9244ZM19.25 8.86514C18.4918 8.86514 17.875 8.24832 17.875 7.49014V6.11514H20.625V7.49014C20.625 8.24832 20.0082 8.86514 19.25 8.86514Z" fill="#4CAF50"/>
</svg>
