<svg width="22" height="22" viewBox="0 0 22 22" fill="none" xmlns="http://www.w3.org/2000/svg">
<path d="M17.6927 21.2065H1.25791C0.989297 21.2065 0.73169 21.0998 0.541756 20.9098C0.351821 20.7198 0.245117 20.4622 0.245117 20.1936C0.245117 19.9249 0.351821 19.6673 0.541756 19.4773C0.73169 19.2874 0.989297 19.1807 1.25791 19.1807H17.6927C17.9613 19.1807 18.2189 19.2874 18.4088 19.4773C18.5988 19.6673 18.7055 19.9249 18.7055 20.1936C18.7055 20.4622 18.5988 20.7198 18.4088 20.9098C18.2189 21.0998 17.9613 21.2065 17.6927 21.2065Z" fill="#4CAF50"/>
<path d="M2.02558 3.7258V20.1625C2.02558 20.4312 1.91887 20.6888 1.72894 20.8787C1.539 21.0687 1.2814 21.1754 1.01279 21.1754C0.74418 21.1754 0.486573 21.0687 0.296639 20.8787C0.106704 20.6888 0 20.4312 0 20.1625V3.7258C0 3.45716 0.106704 3.19952 0.296639 3.00956C0.486573 2.81961 0.74418 2.71289 1.01279 2.71289C1.2814 2.71289 1.539 2.81961 1.72894 3.00956C1.91887 3.19952 2.02558 3.45716 2.02558 3.7258Z" fill="#4CAF50"/>
<path d="M16.7065 4.63541L8.38674 4.42179C8.14925 4.41569 7.92342 4.50305 7.75034 4.6675C7.57706 4.83212 7.47843 5.0532 7.47224 5.29063L7.45295 6.04617C7.44677 6.2834 7.53402 6.50954 7.69853 6.68274C7.86296 6.85584 8.08949 6.96006 8.32671 6.96606L13.1855 7.0961L5.27762 14.6091C4.92108 14.9478 4.90452 15.4946 5.24331 15.8513L5.76368 16.3992C6.10247 16.7558 6.67607 16.7955 7.03261 16.4568L14.9687 8.91692L14.8344 13.8172C14.8284 14.0546 14.9115 14.2763 15.076 14.4495C15.2403 14.6225 15.4596 14.7192 15.697 14.7253L16.4512 14.7435C16.6887 14.7496 16.914 14.6618 17.0873 14.4972C17.2603 14.3328 17.3588 14.1113 17.3649 13.8738L17.5784 5.55318C17.5844 5.31501 17.4966 5.08811 17.3314 4.91518C17.1666 4.74084 16.9445 4.64133 16.7065 4.63541Z" fill="#4CAF50"/>
</svg>
